# Blender 5.2.0 LTS
# www.blender.org
mtllib gloriousknife_wrapsplit.mtl
o Glorious_Star_Top
usemtl GLORIOUS_UNWRAPPED
v 0.127190 2.216285 0.091994
v 0.199417 2.286282 0.091994
v 0.127190 2.286282 0.112968
v 0.054963 2.286282 0.091994
v 0.127190 2.216285 0.091994
v 0.127190 2.286282 0.112968
v 0.127190 2.356279 -0.091898
v 0.199417 2.286282 -0.091898
v 0.127190 2.286282 -0.112873
v 0.054963 2.286282 -0.091898
v 0.127190 2.356279 -0.091898
v 0.127190 2.286282 -0.112873
v 0.127190 2.216285 -0.091898
v 0.054963 2.286282 -0.091898
v 0.127190 2.286282 -0.112873
v 0.127190 2.356279 0.091994
v 0.054963 2.286282 0.091994
v 0.127190 2.286282 0.112968
v 0.199417 2.286282 0.091994
v 0.127190 2.356279 0.091994
v 0.127190 2.286282 0.112968
v 0.199417 2.286282 -0.091898
v 0.127190 2.216285 -0.091898
v 0.127190 2.286282 -0.112873
vn 0.2680 -0.2765 0.9229
vn -0.2680 -0.2765 0.9229
vn 0.2680 0.2765 -0.9229
vn -0.2680 0.2765 -0.9229
vn -0.2680 -0.2766 -0.9229
vn -0.2680 0.2765 0.9229
vn 0.2680 0.2765 0.9229
vn 0.2680 -0.2766 -0.9229
vt 0.000000 0.000000
s 1
f 1/1/1 2/1/1 3/1/1
f 4/1/2 5/1/2 6/1/2
f 7/1/3 8/1/3 9/1/3
f 10/1/4 11/1/4 12/1/4
f 13/1/5 14/1/5 15/1/5
f 16/1/6 17/1/6 18/1/6
f 19/1/7 20/1/7 21/1/7
f 22/1/8 23/1/8 24/1/8
o Glorious_Wrap_Handle
usemtl WRAP_HANDLE
v 0.129998 0.680554 -0.098244
v 0.000000 0.427273 -0.160805
v 0.000000 0.680554 -0.138938
v -0.129998 0.680554 -0.098244
v 0.150458 0.427273 -0.113706
v -0.150458 0.427273 -0.113706
v 0.212780 0.427273 -0.000000
v -0.212780 0.427273 -0.000000
v 0.183844 0.680554 -0.000000
v -0.183844 0.680554 -0.000000
v 0.129998 0.680554 0.098244
v -0.129998 0.680554 0.098244
v 0.150458 0.427273 0.113706
v -0.150458 0.427273 0.113706
v 0.000000 0.427273 0.160805
v 0.000000 0.680554 0.138936
v 0.129998 -0.679790 -0.098244
v 0.219953 -0.474527 0.000000
v 0.183844 -0.679790 0.000000
v 0.129998 -0.679790 0.098244
v 0.155530 -0.474527 -0.117539
v 0.155530 -0.474527 0.117539
v 0.240626 -0.188291 0.000000
v 0.170148 -0.188291 -0.128587
v 0.170148 -0.188291 0.128587
v 0.000000 -0.188291 -0.181849
v 0.000000 -0.188291 0.181849
v 0.000000 -0.474527 -0.166226
v 0.000000 -0.679790 -0.138936
v -0.129998 -0.679790 -0.098244
v -0.155530 -0.474527 -0.117539
v -0.170148 -0.188291 -0.128587
v -0.240626 -0.188291 0.000000
v -0.219953 -0.474527 0.000000
v -0.183844 -0.679790 0.000000
v -0.129998 -0.679790 0.098244
v -0.155530 -0.474527 0.117539
v -0.170148 -0.188291 0.128587
v 0.000000 -0.474527 0.166226
v 0.000000 -0.679790 0.138938
v 0.136791 0.408276 -0.103380
v 0.000000 0.389279 -0.164084
v 0.000000 0.408276 -0.146200
v -0.136794 0.408276 -0.103380
v 0.153527 0.389279 -0.116026
v -0.153527 0.389279 -0.116026
v 0.193455 0.408276 -0.000000
v -0.217119 0.389279 -0.000000
v 0.217119 0.389279 -0.000000
v -0.193455 0.408276 -0.000000
v 0.153527 0.389279 0.116026
v -0.136794 0.408276 0.103380
v 0.136791 0.408276 0.103380
v -0.153527 0.389279 0.116026
v 0.000000 0.389279 0.164083
v 0.000000 0.408276 0.146200
v 0.170918 -0.155865 0.129169
v 0.000000 -0.155865 0.182673
v 0.000000 -0.173223 0.164404
v -0.170918 -0.155865 0.129169
v 0.153825 -0.173223 0.116251
v -0.153827 -0.173223 0.116251
v 0.217542 -0.173223 0.000000
v -0.241715 -0.155865 0.000000
v 0.241715 -0.155865 0.000000
v -0.217542 -0.173223 0.000000
v 0.170918 -0.155865 -0.129168
v -0.153827 -0.173223 -0.116251
v 0.153825 -0.173223 -0.116251
v -0.170918 -0.155865 -0.129168
v 0.000000 -0.173223 -0.164404
v 0.000000 -0.155865 -0.182673
v 0.170918 0.173989 -0.129169
v 0.170918 -0.155865 -0.129168
v 0.000000 0.173989 -0.182673
v 0.241715 -0.155865 0.000000
v 0.000000 -0.155865 -0.182673
v 0.241715 0.173989 -0.000000
v 0.170918 -0.155865 0.129169
v 0.153527 0.389279 -0.116026
v 0.000000 0.389279 -0.164084
v 0.217119 0.389279 -0.000000
v -0.153527 0.389279 -0.116026
v 0.153527 0.389279 0.116026
v 0.170918 0.173989 0.129168
v 0.000000 -0.155865 0.182673
v 0.000000 0.173989 0.182673
v 0.000000 0.389279 0.164083
v -0.170918 -0.155865 0.129169
v -0.153527 0.389279 0.116026
v -0.170918 0.173989 0.129168
v -0.241715 -0.155865 0.000000
v -0.241715 0.173989 -0.000000
v -0.217119 0.389279 -0.000000
v -0.170918 -0.155865 -0.129168
v -0.170918 0.173989 -0.129169
v 0.153825 -0.173223 0.116251
v 0.000000 -0.173223 0.164404
v 0.000000 -0.188291 0.181849
v -0.170148 -0.188291 0.128587
v 0.170148 -0.188291 0.128587
v -0.153827 -0.173223 0.116251
v 0.240626 -0.188291 0.000000
v -0.240626 -0.188291 0.000000
v 0.217542 -0.173223 0.000000
v -0.217542 -0.173223 0.000000
v 0.153825 -0.173223 -0.116251
v -0.153827 -0.173223 -0.116251
v 0.170148 -0.188291 -0.128587
v -0.170148 -0.188291 -0.128587
v 0.000000 -0.188291 -0.181849
v 0.000000 -0.173223 -0.164404
v -0.212780 0.427273 -0.000000
v -0.136794 0.408276 0.103380
v -0.150458 0.427273 0.113706
v 0.000000 0.427273 0.160805
v -0.193455 0.408276 -0.000000
v 0.000000 0.408276 0.146200
v -0.136794 0.408276 -0.103380
v 0.136791 0.408276 0.103380
v -0.150458 0.427273 -0.113706
v 0.150458 0.427273 0.113706
v 0.000000 0.427273 -0.160805
v 0.212780 0.427273 -0.000000
v 0.000000 0.408276 -0.146200
v 0.193455 0.408276 -0.000000
v 0.136791 0.408276 -0.103380
v 0.150458 0.427273 -0.113706
vn 0.6001 0.0970 -0.7940
vn -0.0000 0.0860 -0.9963
vn -0.6001 0.0970 -0.7940
vn 0.9935 0.1135 -0.0000
vn -0.9935 0.1135 -0.0000
vn 0.6001 0.0970 0.7940
vn -0.6001 0.0970 0.7940
vn -0.0000 0.0860 0.9963
vn 0.5963 -0.1483 -0.7890
vn 0.9926 -0.1212 -0.0000
vn 0.9849 -0.1733 -0.0000
vn 0.5963 -0.1483 0.7890
vn 0.5996 -0.1037 -0.7935
vn 0.5996 -0.1037 0.7935
vn 0.9974 -0.0720 -0.0000
vn 0.6018 -0.0615 -0.7963
vn 0.6018 -0.0615 0.7963
vn -0.0000 -0.0545 -0.9985
vn -0.0000 -0.0545 0.9985
vn -0.0000 -0.0925 -0.9957
vn -0.0000 -0.1318 -0.9913
vn -0.5963 -0.1483 -0.7890
vn -0.5996 -0.1037 -0.7935
vn -0.6018 -0.0615 -0.7963
vn -0.9974 -0.0720 -0.0000
vn -0.9927 -0.1209 -0.0000
vn -0.9849 -0.1733 -0.0000
vn -0.5963 -0.1483 0.7890
vn -0.5996 -0.1037 0.7935
vn -0.6018 -0.0615 0.7963
vn -0.0000 -0.0925 0.9957
vn -0.0000 -0.1318 0.9913
vn 0.4132 0.7281 -0.5468
vn -0.0000 0.6854 -0.7281
vn -0.4133 0.7281 -0.5469
vn 0.4133 0.7282 -0.5468
vn 0.6260 0.7798 -0.0000
vn -0.6260 0.7798 -0.0000
vn 0.4133 0.7281 0.5468
vn -0.4133 0.7281 0.5469
vn 0.4132 0.7281 0.5468
vn -0.0000 0.6854 0.7281
vn 0.3884 -0.7649 0.5139
vn -0.0000 -0.7249 0.6888
vn -0.3885 -0.7649 0.5139
vn 0.3884 -0.7649 0.5140
vn -0.3884 -0.7649 0.5139
vn 0.5833 -0.8123 -0.0000
vn -0.5833 -0.8123 -0.0000
vn 0.3884 -0.7649 -0.5139
vn -0.3884 -0.7649 -0.5139
vn 0.3884 -0.7649 -0.5140
vn -0.0000 -0.7249 -0.6888
vn 0.6023 0.0478 -0.7968
vn 0.6029 -0.0000 -0.7978
vn -0.0000 0.0427 -0.9991
vn 1.0000 -0.0000 -0.0000
vn -0.0000 -0.0000 -1.0000
vn 0.9984 0.0558 -0.0000
vn 0.6030 -0.0000 0.7978
vn 0.6023 0.0478 0.7969
vn -0.0000 -0.0000 1.0000
vn -0.0000 0.0427 0.9991
vn -0.6029 -0.0000 0.7978
vn -0.6023 0.0478 0.7968
vn -1.0000 -0.0000 -0.0000
vn -0.9984 0.0558 -0.0000
vn -0.6030 -0.0000 -0.7978
vn -0.6023 0.0478 -0.7969
vn 0.3665 0.7941 0.4849
vn -0.0000 0.7568 0.6536
vn -0.3664 0.7941 0.4849
vn 0.5466 0.8374 -0.0000
vn -0.5466 0.8374 -0.0000
vn 0.3665 0.7941 -0.4849
vn -0.3664 0.7941 -0.4849
vn -0.0000 0.7568 -0.6536
vn -0.0000 0.7568 -0.6537
vn -0.7010 -0.7131 -0.0000
vn -0.4555 -0.6552 0.6027
vn -0.4556 -0.6552 0.6026
vn -0.0000 -0.6095 0.7928
vn -0.4555 -0.6552 -0.6027
vn 0.4554 -0.6553 0.6027
vn 0.4555 -0.6553 0.6026
vn -0.0000 -0.6095 -0.7928
vn 0.7010 -0.7132 -0.0000
vn 0.7010 -0.7131 -0.0000
vn 0.4554 -0.6553 -0.6027
vn 0.4555 -0.6553 -0.6026
vt 0.000000 0.000000
s 1
f 25/2/9 26/2/10 27/2/10
f 27/2/10 26/2/10 28/2/11
f 26/2/10 25/2/9 29/2/9
f 28/2/11 26/2/10 30/2/11
f 25/2/9 31/2/12 29/2/9
f 32/2/13 28/2/11 30/2/11
f 31/2/12 25/2/9 33/2/12
f 28/2/11 32/2/13 34/2/13
f 35/2/14 31/2/12 33/2/12
f 34/2/13 32/2/13 36/2/15
f 31/2/12 35/2/14 37/2/14
f 38/2/15 36/2/15 32/2/13
f 37/2/14 35/2/14 39/2/16
f 39/2/16 36/2/15 38/2/15
f 39/2/16 35/2/14 40/2/16
f 36/2/15 39/2/16 40/2/16
f 41/2/17 42/2/18 43/2/19
f 42/2/18 44/2/20 43/2/19
f 42/2/18 41/2/17 45/2/21
f 44/2/20 42/2/18 46/2/22
f 45/2/21 47/2/23 42/2/18
f 47/2/23 46/2/22 42/2/18
f 47/2/23 45/2/21 48/2/24
f 46/2/22 47/2/23 49/2/25
f 48/2/24 45/2/21 50/2/26
f 51/2/27 46/2/22 49/2/25
f 52/2/28 45/2/21 41/2/17
f 50/2/26 45/2/21 52/2/28
f 52/2/28 41/2/17 53/2/29
f 54/2/30 52/2/28 53/2/29
f 55/2/31 50/2/26 52/2/28
f 52/2/28 54/2/30 55/2/31
f 50/2/26 55/2/31 56/2/32
f 56/2/32 55/2/31 57/2/33
f 55/2/31 54/2/30 58/2/34
f 58/2/34 57/2/33 55/2/31
f 54/2/30 59/2/35 58/2/34
f 60/2/36 58/2/34 59/2/35
f 61/2/37 57/2/33 58/2/34
f 58/2/34 60/2/36 61/2/37
f 57/2/33 61/2/37 62/2/38
f 61/2/37 51/2/27 62/2/38
f 60/2/36 63/2/39 61/2/37
f 63/2/39 51/2/27 61/2/37
f 64/2/40 63/2/39 60/2/36
f 46/2/22 51/2/27 63/2/39
f 44/2/20 63/2/39 64/2/40
f 63/2/39 44/2/20 46/2/22
f 65/2/41 66/2/42 67/2/42
f 66/2/42 68/2/43 67/2/42
f 66/2/42 65/2/41 69/2/44
f 68/2/43 66/2/42 70/2/43
f 71/2/45 69/2/44 65/2/41
f 72/2/46 68/2/43 70/2/43
f 69/2/44 71/2/45 73/2/45
f 68/2/43 72/2/46 74/2/46
f 71/2/45 75/2/47 73/2/45
f 72/2/46 76/2/48 74/2/46
f 75/2/47 71/2/45 77/2/49
f 72/2/46 78/2/48 76/2/48
f 79/2/50 75/2/47 77/2/49
f 79/2/50 76/2/48 78/2/48
f 77/2/49 80/2/50 79/2/50
f 76/2/48 79/2/50 80/2/50
f 81/2/51 82/2/52 83/2/52
f 84/2/53 83/2/52 82/2/52
f 83/2/52 85/2/54 81/2/51
f 83/2/52 84/2/53 86/2/55
f 87/2/56 81/2/51 85/2/54
f 88/2/57 86/2/55 84/2/53
f 81/2/51 87/2/56 89/2/56
f 86/2/55 88/2/57 90/2/57
f 87/2/56 91/2/58 89/2/56
f 92/2/59 90/2/57 88/2/57
f 91/2/58 87/2/56 93/2/60
f 88/2/57 94/2/59 92/2/59
f 95/2/61 91/2/58 93/2/60
f 94/2/59 95/2/61 92/2/59
f 91/2/58 95/2/61 96/2/61
f 94/2/59 96/2/61 95/2/61
f 97/2/62 98/2/63 99/2/64
f 97/2/62 100/2/65 98/2/63
f 99/2/64 98/2/63 101/2/66
f 100/2/65 97/2/62 102/2/67
f 102/2/67 103/2/68 100/2/65
f 99/2/64 104/2/9 97/2/62
f 104/2/9 102/2/67 97/2/62
f 104/2/9 99/2/64 105/2/10
f 102/2/67 104/2/9 106/2/12
f 107/2/11 105/2/10 99/2/64
f 108/2/14 102/2/67 106/2/12
f 103/2/68 102/2/67 109/2/69
f 102/2/67 108/2/14 109/2/69
f 103/2/68 109/2/69 110/2/70
f 109/2/69 108/2/14 111/2/71
f 110/2/70 109/2/69 111/2/71
f 111/2/71 108/2/14 112/2/16
f 110/2/70 111/2/71 113/2/72
f 114/2/15 111/2/71 112/2/16
f 113/2/72 111/2/71 115/2/73
f 111/2/71 114/2/15 115/2/73
f 113/2/72 115/2/73 116/2/74
f 117/2/75 115/2/73 114/2/15
f 117/2/75 116/2/74 115/2/73
f 118/2/13 117/2/75 114/2/15
f 107/2/11 117/2/75 118/2/13
f 116/2/74 117/2/75 119/2/76
f 117/2/75 107/2/11 120/2/77
f 120/2/77 119/2/76 117/2/75
f 107/2/11 99/2/64 120/2/77
f 120/2/77 101/2/66 119/2/76
f 99/2/64 101/2/66 120/2/77
f 121/2/78 122/2/79 123/2/79
f 122/2/79 124/2/80 123/2/79
f 123/2/79 125/2/78 121/2/78
f 124/2/80 122/2/79 126/2/80
f 127/2/81 121/2/78 125/2/78
f 128/2/82 124/2/80 126/2/80
f 121/2/78 127/2/81 129/2/81
f 128/2/82 126/2/80 130/2/82
f 127/2/81 131/2/83 129/2/81
f 132/2/84 128/2/82 130/2/82
f 127/2/81 133/2/83 131/2/83
f 128/2/82 132/2/84 134/2/84
f 135/2/85 131/2/83 133/2/83
f 136/2/86 134/2/84 132/2/84
f 131/2/83 135/2/85 136/2/86
f 134/2/84 136/2/86 135/2/85
f 137/2/87 138/2/88 139/2/89
f 138/2/88 140/2/90 139/2/89
f 138/2/88 137/2/87 141/2/87
f 138/2/88 142/2/90 140/2/90
f 143/2/91 141/2/87 137/2/87
f 144/2/92 140/2/90 142/2/90
f 137/2/87 145/2/91 143/2/91
f 140/2/90 144/2/92 146/2/93
f 147/2/94 143/2/91 145/2/91
f 148/2/95 146/2/93 144/2/92
f 143/2/91 147/2/94 149/2/94
f 148/2/95 144/2/92 150/2/96
f 147/2/94 151/2/97 149/2/94
f 151/2/97 148/2/95 150/2/96
f 147/2/94 152/2/98 151/2/97
f 148/2/95 151/2/97 152/2/98
o Glorious_Gold_Details
usemtl GLORIOUS_UNWRAPPED
v -0.113452 -0.952840 -0.105580
v -0.113452 -0.952840 0.105580
v -0.160446 -0.952840 0.000000
v 0.113452 -0.952840 -0.105580
v 0.000000 -0.952840 -0.149313
v 0.113452 -0.952840 0.105580
v 0.000000 -0.952840 0.149313
v 0.160446 -0.952840 0.000000
v 0.160446 -0.909090 0.149313
v 0.000000 -0.952840 0.149313
v 0.113452 -0.952840 0.105580
v 0.160446 -0.952840 0.000000
v 0.000000 -0.909090 0.211163
v 0.226906 -0.909090 0.000000
v -0.113452 -0.952840 0.105580
v 0.160446 -0.909090 -0.149313
v -0.160448 -0.909090 0.149313
v 0.113452 -0.952840 -0.105580
v -0.160446 -0.952840 0.000000
v 0.000000 -0.952840 -0.149313
v -0.226906 -0.909090 0.000000
v 0.000000 -0.909090 -0.211163
v -0.160448 -0.909090 -0.149313
v -0.113452 -0.952840 -0.105580
v 0.000000 -0.803888 -0.224123
v -0.160448 -0.909090 -0.149313
v -0.170295 -0.803888 -0.158477
v -0.240833 -0.803888 0.000000
v 0.000000 -0.909090 -0.211163
v -0.226906 -0.909090 0.000000
v 0.160446 -0.909090 -0.149313
v -0.160448 -0.909090 0.149313
v 0.170295 -0.803888 -0.158477
v -0.170295 -0.803888 0.158479
v 0.240830 -0.803888 0.000000
v 0.000000 -0.803888 0.224123
v 0.226906 -0.909090 0.000000
v 0.000000 -0.909090 0.211163
v 0.160446 -0.909090 0.149313
v 0.170295 -0.803888 0.158479
v -0.130419 -0.721794 -0.121371
v -0.204741 -0.680729 0.000000
v -0.144775 -0.680729 -0.134729
v 0.000000 -0.680729 -0.190535
v -0.184441 -0.721794 0.000000
v 0.000000 -0.721794 -0.171644
v -0.130419 -0.721794 0.121372
v 0.130419 -0.721794 -0.121371
v -0.144775 -0.680729 0.134730
v 0.144772 -0.680729 -0.134729
v 0.000000 -0.680729 0.190535
v 0.204739 -0.680729 0.000000
v 0.000000 -0.721794 0.171644
v 0.184441 -0.721794 0.000000
v 0.130419 -0.721794 0.121372
v 0.144772 -0.680729 0.134730
v -0.413994 0.510344 -0.151200
v -0.413994 0.510344 0.151199
v -0.455393 0.588136 -0.167998
v -0.455393 0.588136 0.167998
v 0.455393 0.588136 -0.167998
v 0.455393 0.588136 0.167998
v 0.413994 0.510344 -0.151200
v 0.413994 0.510344 0.151199
v -0.307886 0.681458 0.139784
v -0.307886 0.681458 -0.139784
v -0.282050 0.622733 -0.110165
v -0.282050 0.622733 0.110165
v -0.413994 0.510344 -0.151200
v -0.137997 0.510344 -0.151200
v -0.137997 0.510344 0.151199
v -0.413994 0.510344 0.151199
v 0.000000 0.411889 0.151199
v 0.000000 0.411889 -0.151200
v 0.137997 0.510344 0.151199
v 0.137997 0.510344 -0.151200
v 0.413994 0.510344 0.151199
v 0.413994 0.510344 -0.151200
v 0.108916 1.694643 -0.107098
v 0.156983 1.646767 -0.091373
v 0.128154 1.633252 -0.107098
v 0.130976 1.717931 -0.091373
v 0.063192 1.735748 -0.107098
v 0.072878 1.766606 -0.091373
v 0.009467 1.735339 -0.107098
v -0.004455 1.764455 -0.091373
v -0.059351 1.672665 -0.091373
v 0.156983 1.646767 0.091373
v 0.108916 1.694643 0.107096
v 0.128154 1.633252 0.107096
v 0.130976 1.717931 0.091373
v 0.063192 1.735748 0.107096
v 0.072878 1.766606 0.091373
v 0.009467 1.735339 0.107096
v -0.004455 1.764455 0.091373
v -0.059351 1.672665 0.091373
v -0.000511 0.465974 0.219075
v -0.038790 0.539300 0.219075
v -0.081962 0.484166 0.167010
v -0.000511 0.328142 0.167010
v -0.096207 0.588182 0.219075
v -0.204139 0.588182 0.167010
v -0.081962 0.484166 -0.167010
v -0.204139 0.588181 -0.167010
v -0.096207 0.588181 -0.219075
v -0.038790 0.539300 -0.219075
v -0.000511 0.465974 -0.219075
v -0.000511 0.328142 -0.167010
v -0.000511 0.328142 -0.167010
v -0.000511 0.465974 -0.219075
v 0.080938 0.484166 -0.167010
v 0.037767 0.539300 -0.219075
v 0.095184 0.588181 -0.219075
v 0.203117 0.588181 -0.167010
v 0.080938 0.484166 0.167010
v 0.203117 0.588182 0.167010
v 0.095184 0.588182 0.219075
v 0.037767 0.539300 0.219075
v -0.000511 0.465974 0.219075
v -0.000511 0.328142 0.167010
v 0.307886 0.681458 -0.139784
v 0.282050 0.622733 0.110165
v 0.282050 0.622733 -0.110165
v 0.307886 0.681458 0.139784
v 0.037767 0.637065 0.219075
v -0.000511 0.710390 0.219075
v -0.000511 0.690844 0.210560
v 0.031646 0.629246 0.210560
v 0.079878 0.588182 0.210560
v 0.095184 0.588182 0.219075
v 0.037767 0.637065 -0.219075
v 0.095184 0.588181 -0.219075
v 0.079878 0.588181 -0.210560
v 0.031646 0.629246 -0.210560
v -0.000511 0.690844 -0.210560
v -0.000511 0.710390 -0.219075
v -0.282050 0.622733 -0.110165
v -0.141024 0.622733 -0.110165
v -0.141024 0.622733 0.110165
v -0.282050 0.622733 0.110165
v 0.000000 0.622733 0.110165
v 0.000000 0.622733 -0.110165
v 0.141024 0.622733 0.110165
v 0.141024 0.622733 -0.110165
v 0.282050 0.622733 0.110165
v 0.282050 0.622733 -0.110165
v -0.151799 0.588136 0.167998
v -0.413994 0.510344 0.151199
v -0.137997 0.510344 0.151199
v -0.455393 0.588136 0.167998
v 0.000000 0.588136 0.167998
v 0.000000 0.411889 0.151199
v 0.137997 0.510344 0.151199
v 0.151799 0.588136 0.167998
v 0.413994 0.510344 0.151199
v 0.455393 0.588136 0.167998
v 0.151799 0.588136 -0.167998
v 0.413994 0.510344 -0.151200
v 0.137997 0.510344 -0.151200
v 0.455393 0.588136 -0.167998
v 0.000000 0.588136 -0.167998
v 0.000000 0.411889 -0.151200
v -0.137997 0.510344 -0.151200
v -0.151799 0.588136 -0.167998
v -0.413994 0.510344 -0.151200
v -0.455393 0.588136 -0.167998
v -0.000511 0.690844 -0.210560
v -0.032667 0.629246 -0.210560
v -0.038790 0.637065 -0.219075
v -0.000511 0.710390 -0.219075
v -0.080901 0.588181 -0.210560
v -0.096207 0.588181 -0.219075
v -0.080901 0.588182 0.210560
v -0.032667 0.629246 0.210560
v -0.038790 0.637065 0.219075
v -0.096207 0.588182 0.219075
v -0.000511 0.690844 0.210560
v -0.000511 0.710390 0.219075
v 0.000000 0.787703 0.139784
v -0.153945 0.680514 0.139784
v 0.000000 0.622733 0.110165
v 0.153943 0.680514 0.139784
v -0.141024 0.622733 0.110165
v -0.282050 0.622733 0.110165
v -0.307886 0.681458 0.139784
v 0.141024 0.622733 0.110165
v 0.282050 0.622733 0.110165
v 0.307886 0.681458 0.139784
v 0.000000 0.622733 -0.110165
v 0.000000 0.787703 -0.139784
v 0.153943 0.680514 -0.139784
v -0.153945 0.680514 -0.139784
v 0.141024 0.622733 -0.110165
v 0.282050 0.622733 -0.110165
v 0.307886 0.681458 -0.139784
v -0.141024 0.622733 -0.110165
v -0.282050 0.622733 -0.110165
v -0.307886 0.681458 -0.139784
v -0.000511 0.328142 0.167010
v -0.081962 0.484166 0.167010
v -0.000511 0.588182 -0.000000
v -0.204139 0.588182 0.167010
v 0.156983 1.646767 -0.091373
v 0.130976 1.717931 -0.091373
v 0.108916 1.694643 -0.075647
v 0.128154 1.633252 -0.075647
v 0.063192 1.735748 -0.075647
v 0.072878 1.766606 -0.091373
v 0.009467 1.735339 -0.075647
v -0.004455 1.764455 -0.091373
v -0.059351 1.672665 -0.091373
v 0.108916 1.694643 0.075647
v 0.156983 1.646767 0.091373
v 0.128154 1.633252 0.075647
v 0.130976 1.717931 0.091373
v 0.063192 1.735748 0.075647
v 0.072878 1.766606 0.091373
v 0.009467 1.735339 0.075647
v -0.004455 1.764455 0.091373
v -0.059351 1.672665 0.091373
v -0.307886 0.681458 -0.139784
v -0.307886 0.681458 0.139784
v -0.282050 0.719277 -0.110165
v -0.282050 0.719277 0.110165
v -0.000511 0.588182 -0.000000
v -0.204139 0.588181 -0.167010
v -0.081962 0.484166 -0.167010
v -0.000511 0.328142 -0.167010
v 0.080938 0.484166 -0.167010
v 0.203117 0.588181 -0.167010
v 0.203117 0.588182 0.167010
v 0.080938 0.484166 0.167010
v -0.000511 0.588182 -0.000000
v -0.000511 0.328142 0.167010
v -0.000511 0.710390 -0.219075
v -0.038790 0.637065 -0.219075
v -0.081962 0.692199 -0.167010
v -0.000511 0.848221 -0.167010
v -0.096207 0.588181 -0.219075
v -0.204139 0.588181 -0.167010
v -0.081962 0.692199 0.167010
v -0.204139 0.588182 0.167010
v -0.096207 0.588182 0.219075
v -0.038790 0.637065 0.219075
v -0.000511 0.710390 0.219075
v -0.000511 0.848221 0.167010
v 0.092433 1.123833 -0.101645
v 0.125354 1.157990 -0.102801
v 0.108842 1.110906 -0.091373
v 0.143724 1.143518 -0.091373
v 0.147348 1.212879 -0.102801
v 0.170545 1.212709 -0.091373
v 0.153396 1.287222 -0.091373
v 0.134643 1.280752 -0.101122
v 0.135661 1.328038 -0.091373
v 0.118621 1.329311 -0.099791
v 0.121855 1.408152 -0.091373
v 0.125354 1.157990 0.102801
v 0.092433 1.123833 0.101645
v 0.108842 1.110906 0.091373
v 0.143724 1.143518 0.091373
v 0.147348 1.212879 0.102801
v 0.170545 1.212709 0.091373
v 0.153396 1.287222 0.091373
v 0.134643 1.280752 0.101124
v 0.135661 1.328038 0.091373
v 0.118621 1.329311 0.099791
v 0.121855 1.408152 0.091373
v 0.088377 1.507983 -0.116222
v 0.084017 1.625387 -0.091373
v 0.137830 1.601893 -0.117916
v 0.106350 1.687620 -0.091373
v 0.039256 1.526512 -0.091373
v 0.163661 1.681098 -0.116644
v 0.051940 1.415147 -0.113556
v 0.111681 1.764163 -0.091373
v 0.007324 1.423326 -0.091373
v 0.160915 1.777994 -0.113480
v 0.040712 1.332990 -0.112205
v 0.082606 1.863198 -0.091373
v -0.001653 1.331764 -0.091373
v 0.117220 1.882243 -0.109266
v 0.014150 1.252090 -0.091373
v 0.077361 1.981729 -0.106509
v 0.048762 1.260827 -0.109226
v 0.045896 1.978174 -0.091373
v 0.050252 1.193803 -0.091373
v 0.072135 2.060961 -0.106327
v 0.042585 2.071005 -0.091373
v 0.121234 2.185597 -0.091373
v 0.077522 1.205974 -0.105516
v 0.067806 1.148015 -0.091373
v 0.094390 1.152332 -0.103563
v 0.066626 1.100901 -0.091373
v 0.091310 1.092034 -0.103120
v 0.038230 1.035669 -0.091373
v 0.054321 1.021711 -0.100777
v -0.005062 0.973108 -0.091373
v 0.088377 1.507983 0.116220
v 0.084017 1.625387 0.091373
v 0.039256 1.526512 0.091373
v 0.137830 1.601893 0.117915
v 0.051940 1.415147 0.113556
v 0.106350 1.687620 0.091373
v 0.007324 1.423326 0.091373
v 0.163661 1.681098 0.116643
v 0.040712 1.332990 0.112205
v 0.111681 1.764163 0.091373
v -0.001653 1.331764 0.091373
v 0.160915 1.777994 0.113480
v 0.014150 1.252090 0.091373
v 0.082606 1.863198 0.091373
v 0.048762 1.260827 0.109225
v 0.117220 1.882243 0.109264
v 0.050252 1.193803 0.091373
v 0.077361 1.981729 0.106507
v 0.077522 1.205974 0.105516
v 0.045896 1.978174 0.091373
v 0.067806 1.148015 0.091373
v 0.072135 2.060961 0.106326
v 0.042585 2.071005 0.091373
v 0.121234 2.185597 0.091373
v 0.094390 1.152332 0.103563
v 0.066626 1.100901 0.091373
v 0.091310 1.092034 0.103119
v 0.038230 1.035669 0.091373
v 0.054321 1.021711 0.100776
v -0.005062 0.973108 0.091373
v 0.138841 1.488346 -0.091373
v 0.137830 1.601893 -0.117916
v 0.188885 1.579398 -0.091373
v 0.163661 1.681098 -0.116644
v 0.088377 1.507983 -0.116222
v 0.214426 1.676331 -0.091373
v 0.100638 1.404887 -0.091373
v 0.160915 1.777994 -0.113480
v 0.051940 1.415147 -0.113556
v 0.201926 1.791341 -0.091373
v 0.087780 1.333765 -0.091373
v 0.149326 1.900231 -0.091373
v 0.040712 1.332990 -0.112205
v 0.117220 1.882243 -0.109266
v 0.088367 1.271425 -0.091373
v 0.110201 1.986112 -0.091373
v 0.048762 1.260827 -0.109226
v 0.077361 1.981729 -0.106509
v 0.077522 1.205974 -0.105516
v 0.103612 2.051611 -0.091373
v 0.072135 2.060961 -0.106327
v 0.121234 2.185597 -0.091373
v 0.105472 1.218586 -0.091373
v 0.119362 1.156681 -0.091373
v 0.094390 1.152332 -0.103563
v 0.091310 1.092034 -0.103120
v 0.113945 1.083089 -0.091373
v 0.054321 1.021711 -0.100777
v 0.068867 1.008694 -0.091373
v -0.005062 0.973108 -0.091373
v 0.138841 1.488346 0.091373
v 0.137830 1.601893 0.117915
v 0.088377 1.507983 0.116220
v 0.188885 1.579398 0.091373
v 0.100638 1.404887 0.091373
v 0.163661 1.681098 0.116643
v 0.051940 1.415147 0.113556
v 0.214426 1.676331 0.091373
v 0.087780 1.333765 0.091373
v 0.160915 1.777994 0.113480
v 0.040712 1.332990 0.112205
v 0.201926 1.791341 0.091373
v 0.088367 1.271425 0.091373
v 0.149326 1.900231 0.091373
v 0.048762 1.260827 0.109225
v 0.117220 1.882243 0.109264
v 0.077522 1.205974 0.105516
v 0.110201 1.986112 0.091373
v 0.105472 1.218586 0.091373
v 0.077361 1.981729 0.106507
v 0.119362 1.156681 0.091373
v 0.103612 2.051611 0.091373
v 0.072135 2.060961 0.106326
v 0.121234 2.185597 0.091373
v 0.094390 1.152332 0.103563
v 0.091310 1.092034 0.103119
v 0.113945 1.083089 0.091373
v 0.054321 1.021711 0.100776
v 0.068867 1.008694 0.091373
v -0.005062 0.973108 0.091373
v -0.373474 0.661818 -0.134398
v -0.455393 0.588136 0.167998
v -0.373474 0.661818 0.134398
v -0.455393 0.588136 -0.167998
v 0.074152 1.138816 -0.091373
v 0.104885 1.174767 -0.091373
v 0.092433 1.123833 -0.101645
v 0.125354 1.157990 -0.102801
v 0.121117 1.213589 -0.091373
v 0.147348 1.212879 -0.102801
v 0.134643 1.280752 -0.101122
v 0.113297 1.273855 -0.091373
v 0.118621 1.329311 -0.099791
v 0.099373 1.331129 -0.091373
v 0.121855 1.408152 -0.091373
v 0.104885 1.174767 0.091373
v 0.074152 1.138816 0.091373
v 0.092433 1.123833 0.101645
v 0.125354 1.157990 0.102801
v 0.121117 1.213589 0.091373
v 0.147348 1.212879 0.102801
v 0.134643 1.280752 0.101124
v 0.113297 1.273855 0.091373
v 0.118621 1.329311 0.099791
v 0.099373 1.331129 0.091373
v 0.121855 1.408152 0.091373
v 0.282050 0.719277 0.110165
v 0.307886 0.681458 -0.139784
v 0.282050 0.719277 -0.110165
v 0.307886 0.681458 0.139784
v -0.000511 0.848221 0.167010
v -0.000511 0.710390 0.219075
v 0.080938 0.692199 0.167010
v 0.037767 0.637065 0.219075
v 0.095184 0.588182 0.219075
v 0.203117 0.588182 0.167010
v 0.080938 0.692199 -0.167010
v 0.203117 0.588181 -0.167010
v 0.095184 0.588181 -0.219075
v 0.037767 0.637065 -0.219075
v -0.000511 0.710390 -0.219075
v -0.000511 0.848221 -0.167010
v -0.373474 0.661818 -0.134398
v -0.124490 0.661818 -0.134398
v -0.151799 0.588136 -0.167998
v -0.455393 0.588136 -0.167998
v 0.000000 0.588136 -0.167998
v 0.000000 0.760275 -0.134398
v 0.124490 0.661818 -0.134398
v 0.151799 0.588136 -0.167998
v 0.373471 0.661818 -0.134398
v 0.455393 0.588136 -0.167998
v 0.151799 0.588136 0.167998
v 0.455393 0.588136 0.167998
v 0.373471 0.661818 0.134398
v 0.124490 0.661818 0.134398
v 0.000000 0.588136 0.167998
v 0.000000 0.760275 0.134398
v -0.124490 0.661818 0.134398
v -0.151799 0.588136 0.167998
v -0.373474 0.661818 0.134398
v -0.455393 0.588136 0.167998
v -0.141024 0.738299 0.110165
v -0.282050 0.719277 0.110165
v -0.153945 0.680514 0.139784
v -0.307886 0.681458 0.139784
v 0.000000 0.787703 0.139784
v 0.000000 0.882026 0.110165
v 0.141024 0.738299 0.110165
v 0.153943 0.680514 0.139784
v 0.282050 0.719277 0.110165
v 0.307886 0.681458 0.139784
v 0.282050 0.719277 -0.110165
v 0.153943 0.680514 -0.139784
v 0.141024 0.738299 -0.110165
v 0.307886 0.681458 -0.139784
v 0.000000 0.787703 -0.139784
v 0.000000 0.882026 -0.110165
v -0.141024 0.738299 -0.110165
v -0.153945 0.680514 -0.139784
v -0.282050 0.719277 -0.110165
v -0.307886 0.681458 -0.139784
v 0.373471 0.661818 -0.134398
v 0.455393 0.588136 0.167998
v 0.455393 0.588136 -0.167998
v 0.373471 0.661818 0.134398
v 0.037767 0.539300 0.219075
v 0.095184 0.588182 0.219075
v 0.079878 0.588182 0.210560
v 0.031646 0.547117 0.210560
v -0.000511 0.485520 0.210560
v -0.000511 0.465974 0.219075
v -0.080901 0.588181 -0.210560
v -0.032667 0.547117 -0.210560
v -0.038790 0.539300 -0.219075
v -0.096207 0.588181 -0.219075
v -0.000511 0.485520 -0.210560
v -0.000511 0.465974 -0.219075
v 0.037767 0.539300 -0.219075
v 0.031646 0.547117 -0.210560
v 0.079878 0.588181 -0.210560
v 0.095184 0.588181 -0.219075
v -0.141024 0.738299 -0.110165
v -0.282050 0.719277 -0.110165
v -0.282050 0.719277 0.110165
v -0.141024 0.738299 0.110165
v 0.000000 0.882026 -0.110165
v 0.000000 0.882026 0.110165
v -0.000511 0.485520 0.210560
v -0.032667 0.547117 0.210560
v -0.038790 0.539300 0.219075
v -0.000511 0.465974 0.219075
v -0.080901 0.588182 0.210560
v -0.096207 0.588182 0.219075
v 0.125354 1.157990 -0.079945
v 0.108842 1.110906 -0.091373
v 0.143724 1.143518 -0.091373
v 0.092433 1.123833 -0.081102
v 0.147348 1.212879 -0.079945
v 0.170545 1.212709 -0.091373
v 0.153396 1.287222 -0.091373
v 0.134643 1.280752 -0.081622
v 0.135661 1.328038 -0.091373
v 0.118621 1.329311 -0.082954
v 0.121855 1.408152 -0.091373
v 0.108842 1.110906 0.091373
v 0.125354 1.157990 0.079944
v 0.143724 1.143518 0.091373
v 0.092433 1.123833 0.081102
v 0.147348 1.212879 0.079944
v 0.170545 1.212709 0.091373
v 0.153396 1.287222 0.091373
v 0.134643 1.280752 0.081621
v 0.135661 1.328038 0.091373
v 0.118621 1.329311 0.082954
v 0.121855 1.408152 0.091373
v 0.084017 1.625387 -0.091373
v 0.039256 1.526512 -0.091373
v 0.088377 1.507983 -0.066525
v 0.051940 1.415147 -0.069192
v 0.137830 1.601893 -0.064832
v 0.007324 1.423326 -0.091373
v 0.106350 1.687620 -0.091373
v 0.040712 1.332990 -0.070541
v 0.163661 1.681098 -0.066101
v -0.001653 1.331764 -0.091373
v 0.111681 1.764163 -0.091373
v 0.014150 1.252090 -0.091373
v 0.160915 1.777994 -0.069265
v 0.048762 1.260827 -0.073521
v 0.082606 1.863198 -0.091373
v 0.050252 1.193803 -0.091373
v 0.117220 1.882243 -0.073482
v 0.077522 1.205974 -0.077229
v 0.077361 1.981729 -0.076235
v 0.067806 1.148015 -0.091373
v 0.045896 1.978174 -0.091373
v 0.094390 1.152332 -0.079181
v 0.072135 2.060961 -0.076419
v 0.042585 2.071005 -0.091373
v 0.121234 2.185597 -0.091373
v 0.066626 1.100901 -0.091373
v 0.091310 1.092034 -0.079624
v 0.038230 1.035669 -0.091373
v 0.054321 1.021711 -0.081967
v -0.005062 0.973108 -0.091373
v 0.137830 1.601893 0.064831
v 0.088377 1.507983 0.066524
v 0.084017 1.625387 0.091373
v 0.039256 1.526512 0.091373
v 0.106350 1.687620 0.091373
v 0.051940 1.415147 0.069190
v 0.163661 1.681098 0.066101
v 0.007324 1.423326 0.091373
v 0.111681 1.764163 0.091373
v 0.040712 1.332990 0.070541
v 0.160915 1.777994 0.069265
v -0.001653 1.331764 0.091373
v 0.082606 1.863198 0.091373
v 0.014150 1.252090 0.091373
v 0.117220 1.882243 0.073481
v 0.048762 1.260827 0.073520
v 0.077361 1.981729 0.076235
v 0.050252 1.193803 0.091373
v 0.045896 1.978174 0.091373
v 0.077522 1.205974 0.077229
v 0.072135 2.060961 0.076419
v 0.042585 2.071005 0.091373
v 0.121234 2.185597 0.091373
v 0.067806 1.148015 0.091373
v 0.094390 1.152332 0.079181
v 0.066626 1.100901 0.091373
v 0.091310 1.092034 0.079624
v 0.038230 1.035669 0.091373
v 0.054321 1.021711 0.081967
v -0.005062 0.973108 0.091373
v 0.137830 1.601893 -0.064832
v 0.088377 1.507983 -0.066525
v 0.138841 1.488346 -0.091373
v 0.100638 1.404887 -0.091373
v 0.188885 1.579398 -0.091373
v 0.051940 1.415147 -0.069192
v 0.163661 1.681098 -0.066101
v 0.087780 1.333765 -0.091373
v 0.214426 1.676331 -0.091373
v 0.040712 1.332990 -0.070541
v 0.160915 1.777994 -0.069265
v 0.088367 1.271425 -0.091373
v 0.201926 1.791341 -0.091373
v 0.048762 1.260827 -0.073521
v 0.149326 1.900231 -0.091373
v 0.077522 1.205974 -0.077229
v 0.117220 1.882243 -0.073482
v 0.105472 1.218586 -0.091373
v 0.110201 1.986112 -0.091373
v 0.119362 1.156681 -0.091373
v 0.077361 1.981729 -0.076235
v 0.094390 1.152332 -0.079181
v 0.103612 2.051611 -0.091373
v 0.072135 2.060961 -0.076419
v 0.121234 2.185597 -0.091373
v 0.091310 1.092034 -0.079624
v 0.113945 1.083089 -0.091373
v 0.054321 1.021711 -0.081967
v 0.068867 1.008694 -0.091373
v -0.005062 0.973108 -0.091373
v 0.188885 1.579398 0.091373
v 0.138841 1.488346 0.091373
v 0.137830 1.601893 0.064831
v 0.088377 1.507983 0.066524
v 0.163661 1.681098 0.066101
v 0.100638 1.404887 0.091373
v 0.214426 1.676331 0.091373
v 0.051940 1.415147 0.069190
v 0.160915 1.777994 0.069265
v 0.087780 1.333765 0.091373
v 0.201926 1.791341 0.091373
v 0.040712 1.332990 0.070541
v 0.149326 1.900231 0.091373
v 0.088367 1.271425 0.091373
v 0.117220 1.882243 0.073481
v 0.048762 1.260827 0.073520
v 0.110201 1.986112 0.091373
v 0.077522 1.205974 0.077229
v 0.077361 1.981729 0.076235
v 0.105472 1.218586 0.091373
v 0.103612 2.051611 0.091373
v 0.072135 2.060961 0.076419
v 0.121234 2.185597 0.091373
v 0.119362 1.156681 0.091373
v 0.094390 1.152332 0.079181
v 0.091310 1.092034 0.079624
v 0.113945 1.083089 0.091373
v 0.054321 1.021711 0.081967
v 0.068867 1.008694 0.091373
v -0.005062 0.973108 0.091373
v 0.282050 0.719277 -0.110165
v 0.141024 0.738299 -0.110165
v 0.141024 0.738299 0.110165
v 0.282050 0.719277 0.110165
v 0.000000 0.882026 0.110165
v 0.000000 0.882026 -0.110165
v 0.104885 1.174767 -0.091373
v 0.092433 1.123833 -0.081102
v 0.125354 1.157990 -0.079945
v 0.074152 1.138816 -0.091373
v 0.121117 1.213589 -0.091373
v 0.147348 1.212879 -0.079945
v 0.134643 1.280752 -0.081622
v 0.113297 1.273855 -0.091373
v 0.118621 1.329311 -0.082954
v 0.099373 1.331129 -0.091373
v 0.121855 1.408152 -0.091373
v 0.092433 1.123833 0.081102
v 0.104885 1.174767 0.091373
v 0.125354 1.157990 0.079944
v 0.074152 1.138816 0.091373
v 0.121117 1.213589 0.091373
v 0.147348 1.212879 0.079944
v 0.134643 1.280752 0.081621
v 0.113297 1.273855 0.091373
v 0.118621 1.329311 0.082954
v 0.099373 1.331129 0.091373
v 0.121855 1.408152 0.091373
v -0.000511 0.588182 -0.000000
v -0.000511 0.848221 -0.167010
v -0.081962 0.692199 -0.167010
v -0.204139 0.588181 -0.167010
v -0.204139 0.588182 0.167010
v -0.081962 0.692199 0.167010
v -0.000511 0.588182 -0.000000
v -0.000511 0.848221 0.167010
v 0.083470 1.668796 -0.091373
v 0.128154 1.633252 -0.107098
v 0.095255 1.618609 -0.091373
v 0.108916 1.694643 -0.107098
v 0.051578 1.701063 -0.091373
v 0.063192 1.735748 -0.107098
v 0.024592 1.702097 -0.091373
v 0.009467 1.735339 -0.107098
v -0.059351 1.672665 -0.091373
v 0.128154 1.633252 0.107096
v 0.083470 1.668796 0.091373
v 0.095255 1.618609 0.091373
v 0.108916 1.694643 0.107096
v 0.051578 1.701063 0.091373
v 0.063192 1.735748 0.107096
v 0.024592 1.702097 0.091373
v 0.009467 1.735339 0.107096
v -0.059351 1.672665 0.091373
v -0.000511 0.588182 -0.000000
v -0.000511 0.848221 0.167010
v 0.080938 0.692199 0.167010
v 0.203117 0.588182 0.167010
v 0.203117 0.588181 -0.167010
v 0.080938 0.692199 -0.167010
v -0.000511 0.588182 -0.000000
v -0.000511 0.848221 -0.167010
v 0.373471 0.661818 -0.134398
v 0.124490 0.661818 -0.134398
v 0.124490 0.661818 0.134398
v 0.373471 0.661818 0.134398
v 0.000000 0.760275 0.134398
v 0.000000 0.760275 -0.134398
v -0.124490 0.661818 0.134398
v -0.124490 0.661818 -0.134398
v -0.373474 0.661818 0.134398
v -0.373474 0.661818 -0.134398
v 0.128154 1.633252 -0.075647
v 0.108916 1.694643 -0.075647
v 0.083470 1.668796 -0.091373
v 0.095255 1.618609 -0.091373
v 0.051578 1.701063 -0.091373
v 0.063192 1.735748 -0.075647
v 0.024592 1.702097 -0.091373
v 0.009467 1.735339 -0.075647
v -0.059351 1.672665 -0.091373
v 0.083470 1.668796 0.091373
v 0.128154 1.633252 0.075647
v 0.095255 1.618609 0.091373
v 0.108916 1.694643 0.075647
v 0.051578 1.701063 0.091373
v 0.063192 1.735748 0.075647
v 0.024592 1.702097 0.091373
v 0.009467 1.735339 0.075647
v -0.059351 1.672665 0.091373
v 0.000000 -0.680729 0.190535
v 0.144772 -0.680729 0.134730
v 0.105668 -0.619130 0.098337
v 0.204739 -0.680729 0.000000
v 0.000000 -0.619130 0.139069
v 0.149436 -0.619130 0.000000
v -0.105668 -0.619130 0.098337
v 0.105668 -0.619130 -0.098337
v -0.144775 -0.680729 0.134730
v 0.144772 -0.680729 -0.134729
v -0.204741 -0.680729 0.000000
v 0.000000 -0.680729 -0.190535
v -0.149436 -0.619130 0.000000
v 0.000000 -0.619130 -0.139069
v -0.105668 -0.619130 -0.098337
v -0.144775 -0.680729 -0.134729
v 0.240830 -0.803888 0.000000
v 0.130419 -0.721794 0.121372
v 0.170295 -0.803888 0.158479
v 0.000000 -0.803888 0.224123
v 0.184441 -0.721794 0.000000
v 0.000000 -0.721794 0.171644
v 0.130419 -0.721794 -0.121371
v -0.130419 -0.721794 0.121372
v 0.170295 -0.803888 -0.158477
v -0.170295 -0.803888 0.158479
v 0.000000 -0.803888 -0.224123
v -0.240833 -0.803888 0.000000
v 0.000000 -0.721794 -0.171644
v -0.184441 -0.721794 0.000000
v -0.130419 -0.721794 -0.121371
v -0.170295 -0.803888 -0.158477
vn -0.0000 -1.0000 -0.0000
vn 0.3843 -0.8257 0.4130
vn -0.0000 -0.8164 0.5775
vn 0.3844 -0.8256 0.4130
vn 0.5499 -0.8353 -0.0000
vn -0.3843 -0.8257 0.4131
vn 0.3843 -0.8257 -0.4130
vn -0.3844 -0.8256 0.4130
vn 0.3844 -0.8256 -0.4130
vn -0.5499 -0.8353 -0.0000
vn -0.0000 -0.8164 -0.5775
vn -0.3844 -0.8257 -0.4129
vn -0.3843 -0.8257 -0.4131
vn -0.0000 -0.1223 -0.9925
vn -0.6758 -0.1266 -0.7262
vn -0.9914 -0.1312 -0.0000
vn 0.6758 -0.1266 -0.7262
vn -0.6758 -0.1266 0.7262
vn 0.6757 -0.1266 -0.7262
vn 0.9914 -0.1312 -0.0000
vn -0.0000 -0.1223 0.9925
vn 0.6758 -0.1266 0.7262
vn -0.6150 -0.4300 -0.6609
vn -0.8964 -0.4432 -0.0000
vn -0.6150 -0.4300 -0.6610
vn -0.0000 -0.4179 -0.9085
vn -0.6151 -0.4300 0.6608
vn 0.6151 -0.4299 -0.6609
vn -0.0000 -0.4179 0.9085
vn 0.8965 -0.4431 -0.0000
vn 0.6151 -0.4299 0.6609
vn -0.8828 -0.4698 -0.0000
vn 0.8828 -0.4698 -0.0000
vn -0.9153 -0.4027 -0.0000
vn -0.3065 -0.9519 -0.0000
vn 0.3065 -0.9519 -0.0000
vn 0.3784 0.2379 -0.8945
vn 0.4391 0.1499 -0.8858
vn 0.4391 0.1499 -0.8859
vn 0.3623 0.2598 -0.8951
vn 0.1496 0.4077 -0.9008
vn 0.1441 0.4099 -0.9007
vn -0.2132 0.3788 -0.9006
vn -0.2160 0.3774 -0.9005
vn -0.4332 0.2591 -0.8633
vn 0.4391 0.1499 0.8858
vn 0.3784 0.2379 0.8945
vn 0.3623 0.2598 0.8951
vn 0.1496 0.4077 0.9008
vn 0.1441 0.4099 0.9006
vn -0.2132 0.3788 0.9006
vn -0.2160 0.3774 0.9005
vn -0.4332 0.2591 0.8633
vn -0.5606 -0.2926 0.7747
vn -0.4674 -0.3854 0.7956
vn -0.4855 -0.3685 0.7928
vn -0.3870 -0.4546 0.8022
vn -0.4855 -0.3685 -0.7928
vn -0.3870 -0.4546 -0.8022
vn -0.4670 -0.3857 -0.7957
vn -0.5606 -0.2926 -0.7747
vn 0.5606 -0.2926 -0.7747
vn 0.4855 -0.3685 -0.7928
vn 0.4671 -0.3856 -0.7957
vn 0.3870 -0.4546 -0.8022
vn 0.4855 -0.3685 0.7928
vn 0.3870 -0.4546 0.8022
vn 0.4671 -0.3856 0.7957
vn 0.5606 -0.2926 0.7747
vn 0.9153 -0.4027 -0.0000
vn -0.5277 -0.4018 0.7484
vn -0.6076 -0.3172 0.7281
vn -0.5091 -0.4197 0.7515
vn -0.4222 -0.4959 0.7589
vn -0.5277 -0.4018 -0.7484
vn -0.4222 -0.4959 -0.7589
vn -0.5091 -0.4197 -0.7515
vn -0.6076 -0.3172 -0.7281
vn -0.0201 -0.1768 0.9840
vn -0.0000 -0.2111 0.9775
vn -0.0284 -0.1626 0.9863
vn -0.0000 -0.1333 0.9911
vn -0.0000 -0.1334 0.9911
vn 0.0284 -0.1626 0.9863
vn 0.0201 -0.1768 0.9840
vn 0.0201 -0.1768 -0.9840
vn -0.0000 -0.2111 -0.9775
vn 0.0284 -0.1626 -0.9863
vn -0.0000 -0.1334 -0.9911
vn -0.0000 -0.1335 -0.9911
vn -0.0283 -0.1627 -0.9863
vn -0.0201 -0.1768 -0.9840
vn 0.6076 -0.3172 -0.7281
vn 0.5095 -0.4193 -0.7514
vn 0.5277 -0.4018 -0.7484
vn 0.4222 -0.4959 -0.7589
vn 0.4222 -0.4959 0.7589
vn 0.5095 -0.4193 0.7514
vn 0.5279 -0.4021 0.7481
vn 0.6076 -0.3172 0.7281
vn -0.0000 -0.2519 0.9678
vn 0.0471 -0.3506 0.9353
vn -0.0000 -0.2520 0.9677
vn -0.0471 -0.3506 0.9353
vn 0.0514 -0.3413 0.9385
vn -0.0014 -0.4535 0.8912
vn -0.0014 -0.4536 0.8912
vn -0.0514 -0.3413 0.9385
vn 0.0014 -0.4536 0.8912
vn 0.0014 -0.4535 0.8912
vn -0.0000 -0.2520 -0.9677
vn -0.0000 -0.2519 -0.9678
vn -0.0471 -0.3506 -0.9353
vn 0.0471 -0.3506 -0.9353
vn -0.0514 -0.3413 -0.9385
vn 0.0014 -0.4536 -0.8912
vn 0.0514 -0.3413 -0.9385
vn -0.0014 -0.4535 -0.8912
vn -0.0014 -0.4536 -0.8912
vn -0.7192 -0.3755 -0.5846
vn -0.6294 -0.4837 -0.6082
vn -0.4589 -0.7917 0.4033
vn -0.5086 -0.5974 -0.6201
vn 0.3784 0.2378 0.8946
vn -0.2133 0.3788 0.9006
vn -0.4332 0.2591 0.8632
vn 0.3784 0.2378 -0.8946
vn 0.1441 0.4099 -0.9006
vn -0.2133 0.3788 -0.9006
vn -0.4332 0.2591 -0.8632
vn -0.8257 0.5641 -0.0000
vn -0.4589 -0.7890 -0.4086
vn -0.5086 -0.5974 0.6201
vn -0.6294 -0.4837 0.6082
vn -0.0000 -0.5404 0.8414
vn 0.6294 -0.4837 0.6082
vn 0.5086 -0.5974 0.6201
vn 0.5086 -0.5974 -0.6201
vn 0.6294 -0.4837 -0.6082
vn 0.7943 -0.4193 0.4397
vn 0.7192 -0.3755 -0.5846
vn -0.5606 0.2926 -0.7747
vn -0.4674 0.3854 -0.7956
vn -0.4855 0.3685 -0.7928
vn -0.3870 0.4546 -0.8023
vn -0.4855 0.3685 0.7928
vn -0.3870 0.4546 0.8022
vn -0.4670 0.3857 0.7957
vn -0.5606 0.2926 0.7747
vn 0.3038 -0.3240 -0.8959
vn 0.3706 -0.2444 -0.8961
vn 0.3040 -0.3240 -0.8959
vn 0.3660 -0.2502 -0.8963
vn 0.4362 -0.0402 -0.8989
vn 0.4365 -0.0276 -0.8993
vn 0.4311 0.1381 -0.8917
vn 0.4314 0.1364 -0.8918
vn 0.4343 0.1350 -0.8906
vn 0.4375 0.1201 -0.8912
vn 0.4462 0.0769 -0.8916
vn 0.3706 -0.2444 0.8961
vn 0.3038 -0.3240 0.8960
vn 0.3039 -0.3240 0.8959
vn 0.3659 -0.2502 0.8964
vn 0.4362 -0.0402 0.8989
vn 0.4365 -0.0276 0.8993
vn 0.4310 0.1381 0.8917
vn 0.4313 0.1364 0.8918
vn 0.4344 0.1350 0.8905
vn 0.4375 0.1201 0.8912
vn 0.4462 0.0769 0.8916
vn -0.3965 0.1564 -0.9046
vn -0.3837 0.1588 -0.9097
vn -0.3839 0.1589 -0.9096
vn -0.3975 0.0847 -0.9137
vn -0.3977 0.1549 -0.9043
vn -0.3982 0.0806 -0.9138
vn -0.4270 0.0906 -0.8997
vn -0.3998 -0.0430 -0.9156
vn -0.4278 0.0877 -0.8996
vn -0.3990 -0.0504 -0.9156
vn -0.4404 -0.0194 -0.8976
vn -0.3966 -0.1260 -0.9093
vn -0.4402 -0.0203 -0.8977
vn -0.3979 -0.1271 -0.9086
vn -0.4124 -0.1598 -0.8969
vn -0.4247 -0.0811 -0.9017
vn -0.4095 -0.1680 -0.8967
vn -0.4265 -0.0751 -0.9014
vn -0.3869 -0.2019 -0.8997
vn -0.4136 0.1029 -0.9046
vn -0.4091 0.1197 -0.9046
vn -0.3673 0.2521 -0.8953
vn -0.3872 -0.2016 -0.8997
vn -0.4101 -0.0718 -0.9092
vn -0.4098 -0.0732 -0.9092
vn -0.4030 0.0856 -0.9112
vn -0.4011 0.0930 -0.9113
vn -0.3589 0.1960 -0.9126
vn -0.3571 0.1984 -0.9128
vn -0.3338 0.2310 -0.9139
vn -0.3966 0.1564 0.9046
vn -0.3836 0.1589 0.9097
vn -0.3977 0.1549 0.9043
vn -0.3838 0.1589 0.9097
vn -0.4270 0.0906 0.8997
vn -0.3975 0.0847 0.9137
vn -0.4277 0.0877 0.8996
vn -0.3980 0.0806 0.9138
vn -0.4404 -0.0194 0.8976
vn -0.3998 -0.0430 0.9156
vn -0.4402 -0.0204 0.8976
vn -0.3990 -0.0504 0.9156
vn -0.4125 -0.1598 0.8968
vn -0.3966 -0.1261 0.9093
vn -0.4094 -0.1680 0.8967
vn -0.3979 -0.1272 0.9086
vn -0.3871 -0.2019 0.8996
vn -0.4247 -0.0811 0.9017
vn -0.3870 -0.2017 0.8997
vn -0.4266 -0.0752 0.9013
vn -0.4101 -0.0718 0.9092
vn -0.4137 0.1029 0.9046
vn -0.4090 0.1197 0.9046
vn -0.3673 0.2521 0.8953
vn -0.4099 -0.0732 0.9092
vn -0.4030 0.0857 0.9112
vn -0.4011 0.0930 0.9113
vn -0.3589 0.1960 0.9126
vn -0.3571 0.1985 0.9127
vn -0.3337 0.2309 0.9139
vn 0.3744 -0.1923 -0.9071
vn 0.3990 -0.1631 -0.9024
vn 0.3987 -0.1636 -0.9024
vn 0.4410 -0.0388 -0.8966
vn 0.3753 -0.1906 -0.9071
vn 0.4414 -0.0367 -0.8965
vn 0.3905 -0.1259 -0.9120
vn 0.4319 0.1190 -0.8940
vn 0.3915 -0.1213 -0.9121
vn 0.4300 0.1244 -0.8942
vn 0.4051 -0.0348 -0.9136
vn 0.3991 0.1906 -0.8969
vn 0.4054 -0.0323 -0.9136
vn 0.3994 0.1913 -0.8966
vn 0.3980 0.0667 -0.9150
vn 0.4106 0.1144 -0.9046
vn 0.3980 0.0668 -0.9149
vn 0.4125 0.1050 -0.9049
vn 0.4026 0.1148 -0.9082
vn 0.4217 -0.0030 -0.9067
vn 0.4206 -0.0122 -0.9072
vn 0.4152 -0.0546 -0.9081
vn 0.4014 0.1163 -0.9085
vn 0.4327 0.0361 -0.9008
vn 0.4336 0.0317 -0.9005
vn 0.4158 -0.1252 -0.9008
vn 0.4125 -0.1338 -0.9011
vn 0.2942 -0.3214 -0.9001
vn 0.2985 -0.3168 -0.9003
vn 0.2005 -0.4165 -0.8867
vn 0.3743 -0.1923 0.9071
vn 0.3989 -0.1631 0.9024
vn 0.3752 -0.1906 0.9071
vn 0.3987 -0.1636 0.9024
vn 0.3905 -0.1259 0.9120
vn 0.4411 -0.0388 0.8966
vn 0.3915 -0.1214 0.9122
vn 0.4415 -0.0367 0.8965
vn 0.4050 -0.0351 0.9137
vn 0.4319 0.1190 0.8940
vn 0.4054 -0.0323 0.9136
vn 0.4300 0.1243 0.8942
vn 0.3980 0.0666 0.9149
vn 0.3989 0.1905 0.8970
vn 0.3980 0.0668 0.9149
vn 0.3994 0.1913 0.8966
vn 0.4026 0.1148 0.9082
vn 0.4106 0.1144 0.9046
vn 0.4014 0.1163 0.9085
vn 0.4125 0.1050 0.9049
vn 0.4327 0.0364 0.9008
vn 0.4217 -0.0029 0.9067
vn 0.4206 -0.0122 0.9072
vn 0.4152 -0.0546 0.9081
vn 0.4336 0.0316 0.9005
vn 0.4158 -0.1250 0.9008
vn 0.4125 -0.1338 0.9011
vn 0.2942 -0.3214 0.9001
vn 0.2984 -0.3169 0.9003
vn 0.2005 -0.4165 0.8868
vn -0.6687 0.7435 -0.0000
vn -0.3016 0.2588 -0.9176
vn -0.3472 0.2055 -0.9150
vn -0.3421 0.2115 -0.9156
vn -0.3950 0.0586 -0.9168
vn -0.3958 0.0479 -0.9171
vn -0.3982 -0.0769 -0.9141
vn -0.3983 -0.0748 -0.9142
vn -0.3953 -0.0085 -0.9185
vn -0.3947 0.0116 -0.9187
vn -0.3891 0.1136 -0.9142
vn -0.3472 0.2055 0.9150
vn -0.3016 0.2588 0.9176
vn -0.3016 0.2587 0.9177
vn -0.3423 0.2115 0.9155
vn -0.3950 0.0586 0.9168
vn -0.3958 0.0479 0.9171
vn -0.3983 -0.0769 0.9140
vn -0.3984 -0.0748 0.9142
vn -0.3953 -0.0085 0.9185
vn -0.3947 0.0116 0.9187
vn -0.3891 0.1136 0.9142
vn 0.8257 0.5641 -0.0000
vn 0.5606 0.2926 0.7747
vn 0.4855 0.3685 0.7928
vn 0.4670 0.3857 0.7957
vn 0.3870 0.4546 0.8022
vn 0.3870 0.4546 0.8023
vn 0.4855 0.3685 -0.7928
vn 0.3870 0.4546 -0.8023
vn 0.3870 0.4546 -0.8022
vn 0.4671 0.3856 -0.7957
vn 0.5606 0.2926 -0.7747
vn -0.0000 0.4149 -0.9099
vn -0.0648 0.3213 -0.9448
vn -0.0389 0.3597 -0.9323
vn -0.0000 0.2739 -0.9618
vn -0.0000 0.2737 -0.9618
vn 0.0648 0.3213 -0.9448
vn 0.0389 0.3597 -0.9323
vn 0.0389 0.3597 0.9323
vn -0.0000 0.4149 0.9099
vn 0.0648 0.3213 0.9448
vn -0.0000 0.2739 0.9618
vn -0.0000 0.2737 0.9618
vn -0.0648 0.3213 0.9448
vn -0.0389 0.3597 0.9323
vn -0.2196 0.4305 0.8754
vn -0.0328 0.5361 0.8435
vn -0.1276 0.4858 0.8647
vn -0.0000 0.3870 0.9221
vn -0.0000 0.3869 0.9221
vn 0.2198 0.4306 0.8754
vn 0.1276 0.4858 0.8647
vn 0.0328 0.5361 0.8435
vn 0.0328 0.5361 -0.8435
vn 0.1276 0.4858 -0.8647
vn 0.2198 0.4306 -0.8754
vn -0.0000 0.3870 -0.9221
vn -0.0000 0.3869 -0.9221
vn -0.2196 0.4305 -0.8754
vn -0.1276 0.4858 -0.8647
vn -0.0328 0.5361 -0.8435
vn 0.6687 0.7435 -0.0000
vn -0.5278 0.4018 0.7483
vn -0.4222 0.4959 0.7589
vn -0.5095 0.4194 0.7513
vn -0.6076 0.3172 0.7281
vn 0.4222 0.4959 -0.7589
vn 0.5091 0.4197 -0.7514
vn 0.5277 0.4018 -0.7484
vn -0.0000 0.3994 -0.9168
vn -0.5278 0.4018 -0.7483
vn -0.5090 0.4197 -0.7515
vn -0.4222 0.4959 -0.7589
vn -0.4497 0.8932 -0.0000
vn -0.1337 0.9910 -0.0000
vn -0.4496 0.8932 -0.0000
vn -0.7138 0.7004 -0.0000
vn 0.6076 0.3172 0.7281
vn 0.5091 0.4196 0.7515
vn 0.5277 0.4018 0.7484
vn 0.4222 0.4959 0.7589
vn 0.3039 -0.3241 0.8959
vn 0.4376 0.1201 0.8911
vn 0.3043 -0.3241 -0.8957
vn 0.4310 0.1381 -0.8917
vn 0.4313 0.1364 -0.8918
vn 0.4344 0.1350 -0.8905
vn 0.4376 0.1201 -0.8911
vn -0.3838 0.1588 0.9097
vn -0.3965 0.1564 0.9046
vn -0.4271 0.0906 0.8996
vn -0.4278 0.0877 0.8996
vn -0.3975 0.0846 0.9137
vn -0.4401 -0.0190 0.8977
vn -0.3981 0.0806 0.9138
vn -0.4401 -0.0203 0.8977
vn -0.3999 -0.0430 0.9155
vn -0.4124 -0.1598 0.8969
vn -0.4095 -0.1680 0.8967
vn -0.3966 -0.1260 0.9093
vn -0.3870 -0.2019 0.8997
vn -0.3979 -0.1271 0.9086
vn -0.3872 -0.2016 0.8997
vn -0.4246 -0.0811 0.9018
vn -0.4266 -0.0751 0.9013
vn -0.4090 0.1197 0.9047
vn -0.4030 0.0856 0.9112
vn -0.4013 0.0930 0.9112
vn -0.3589 0.1959 0.9126
vn -0.3338 0.2310 0.9139
vn -0.3838 0.1589 -0.9097
vn -0.3836 0.1589 -0.9097
vn -0.3977 0.1549 -0.9044
vn -0.4272 0.0906 -0.8996
vn -0.3981 0.0806 -0.9138
vn -0.3999 -0.0430 -0.9155
vn -0.3989 -0.0504 -0.9156
vn -0.4094 -0.1680 -0.8967
vn -0.4246 -0.0811 -0.9018
vn -0.3870 -0.2019 -0.8997
vn -0.4266 -0.0751 -0.9013
vn -0.3871 -0.2016 -0.8997
vn -0.4090 0.1197 -0.9047
vn -0.4099 -0.0732 -0.9092
vn -0.4010 0.0929 -0.9113
vn -0.3589 0.1959 -0.9126
vn -0.3571 0.1985 -0.9127
vn 0.3748 -0.1922 0.9070
vn 0.3905 -0.1259 0.9119
vn 0.3913 -0.1214 0.9122
vn 0.4409 -0.0388 0.8967
vn 0.4414 -0.0367 0.8966
vn 0.4053 -0.0323 0.9136
vn 0.4318 0.1189 0.8941
vn 0.3979 0.0667 0.9150
vn 0.3990 0.1905 0.8969
vn 0.4327 0.0362 0.9008
vn 0.4336 0.0317 0.9005
vn 0.4157 -0.1250 0.9009
vn 0.2942 -0.3215 0.9001
vn 0.2984 -0.3170 0.9002
vn 0.2005 -0.4166 0.8867
vn 0.3988 -0.1636 -0.9023
vn 0.3748 -0.1922 -0.9070
vn 0.3989 -0.1631 -0.9024
vn 0.4409 -0.0389 -0.8967
vn 0.3905 -0.1259 -0.9119
vn 0.4414 -0.0367 -0.8966
vn 0.3913 -0.1215 -0.9122
vn 0.4318 0.1189 -0.8941
vn 0.4049 -0.0350 -0.9137
vn 0.4300 0.1243 -0.8942
vn 0.4055 -0.0322 -0.9135
vn 0.3979 0.0667 -0.9150
vn 0.4026 0.1148 -0.9081
vn 0.4126 0.1050 -0.9048
vn 0.4217 -0.0029 -0.9067
vn 0.4327 0.0364 -0.9008
vn 0.4156 -0.1248 -0.9010
vn 0.2942 -0.3215 -0.9001
vn 0.2983 -0.3168 -0.9004
vn 0.2005 -0.4166 -0.8867
vn 0.1337 0.9910 -0.0000
vn 0.4496 0.8932 -0.0000
vn 0.4497 0.8932 -0.0000
vn 0.7138 0.7004 -0.0000
vn -0.3017 0.2588 0.9176
vn -0.3421 0.2115 0.9155
vn -0.3018 0.2588 0.9176
vn -0.3951 0.0586 0.9168
vn -0.3947 0.0116 0.9188
vn -0.3022 0.2589 -0.9174
vn -0.3017 0.2588 -0.9176
vn -0.3952 0.0586 -0.9167
vn -0.3983 -0.0769 -0.9140
vn -0.3984 -0.0748 -0.9142
vn -0.3946 0.0116 -0.9188
vn -0.4689 0.7836 -0.4074
vn -0.7192 0.3755 0.5846
vn -0.6294 0.4837 0.6082
vn -0.5086 0.5974 0.6201
vn -0.5086 0.5974 -0.6201
vn -0.6292 0.4840 -0.6082
vn -0.7943 0.4193 0.4397
vn -0.7192 0.3755 -0.5846
vn -0.3569 -0.1955 -0.9135
vn -0.4092 -0.1137 -0.9054
vn -0.4092 -0.1137 -0.9053
vn -0.3398 -0.2209 -0.9142
vn -0.1505 -0.3619 -0.9200
vn -0.1424 -0.3655 -0.9199
vn 0.0540 -0.4016 -0.9142
vn 0.0655 -0.3979 -0.9151
vn 0.1313 -0.3745 -0.9179
vn -0.4091 -0.1137 0.9054
vn -0.3569 -0.1955 0.9135
vn -0.4092 -0.1137 0.9054
vn -0.3398 -0.2209 0.9142
vn -0.1505 -0.3619 0.9200
vn -0.1424 -0.3655 0.9199
vn 0.0541 -0.4016 0.9142
vn 0.0655 -0.3979 0.9151
vn 0.1313 -0.3744 0.9179
vn 0.4589 0.7917 0.4033
vn 0.7192 0.3755 -0.5846
vn 0.6292 0.4840 -0.6082
vn 0.5086 0.5974 -0.6201
vn 0.5086 0.5974 0.6201
vn 0.6292 0.4840 0.6082
vn 0.7872 0.4302 -0.4420
vn 0.7192 0.3755 0.5846
vn -0.0000 1.0000 -0.0000
vn 0.3297 0.9441 -0.0000
vn -0.3297 0.9441 -0.0000
vn -0.3298 0.9440 -0.0000
vn -0.3399 -0.2209 0.9142
vn 0.0540 -0.4017 0.9142
vn 0.1313 -0.3745 0.9179
vn -0.3399 -0.2209 -0.9142
vn 0.0540 -0.4017 -0.9142
vn -0.0000 0.6412 0.7674
vn 0.5152 0.6542 0.5537
vn 0.5153 0.6542 0.5536
vn 0.7441 0.6681 -0.0000
vn -0.5152 0.6542 0.5537
vn 0.5153 0.6542 -0.5536
vn 0.5152 0.6542 -0.5537
vn -0.7441 0.6681 -0.0000
vn -0.0000 0.6412 -0.7674
vn -0.5152 0.6542 -0.5537
vn 0.8243 0.5662 -0.0000
vn 0.5681 0.5519 0.6105
vn -0.0000 0.5386 0.8426
vn 0.5681 0.5519 -0.6105
vn -0.5681 0.5519 0.6105
vn 0.5680 0.5519 -0.6105
vn -0.5681 0.5518 0.6105
vn -0.0000 0.5386 -0.8426
vn -0.8243 0.5662 -0.0000
vn -0.5681 0.5519 -0.6105
vn -0.5681 0.5518 -0.6105
vt 0.000000 0.000000
s 1
f 153/3/99 154/3/99 155/3/99
f 154/3/99 153/3/99 156/3/99
f 156/3/99 153/3/99 157/3/99
f 158/3/99 154/3/99 156/3/99
f 154/3/99 158/3/99 159/3/99
f 158/3/99 156/3/99 160/3/99
f 161/3/100 162/3/101 163/3/102
f 164/3/103 161/3/100 163/3/102
f 162/3/101 161/3/100 165/3/101
f 161/3/100 164/3/103 166/3/103
f 167/3/104 162/3/101 165/3/101
f 168/3/105 166/3/103 164/3/103
f 165/3/101 169/3/106 167/3/104
f 168/3/105 164/3/103 170/3/107
f 169/3/106 171/3/108 167/3/104
f 172/3/109 168/3/105 170/3/107
f 171/3/108 169/3/106 173/3/108
f 168/3/105 172/3/109 174/3/109
f 175/3/110 171/3/108 173/3/108
f 176/3/111 174/3/109 172/3/109
f 171/3/108 175/3/110 176/3/111
f 174/3/109 176/3/111 175/3/110
f 177/3/112 178/3/113 179/3/113
f 178/3/113 180/3/114 179/3/113
f 178/3/113 177/3/112 181/3/112
f 180/3/114 178/3/113 182/3/114
f 177/3/112 183/3/115 181/3/112
f 184/3/116 180/3/114 182/3/114
f 185/3/117 183/3/115 177/3/112
f 180/3/114 184/3/116 186/3/116
f 187/3/118 183/3/115 185/3/117
f 184/3/116 188/3/119 186/3/116
f 183/3/115 187/3/118 189/3/118
f 184/3/116 190/3/119 188/3/119
f 189/3/118 187/3/118 191/3/120
f 191/3/120 188/3/119 190/3/119
f 187/3/118 192/3/120 191/3/120
f 188/3/119 191/3/120 192/3/120
f 193/3/121 194/3/122 195/3/123
f 196/3/124 193/3/121 195/3/123
f 194/3/122 193/3/121 197/3/122
f 193/3/121 196/3/124 198/3/124
f 199/3/125 194/3/122 197/3/122
f 196/3/124 200/3/126 198/3/124
f 194/3/122 199/3/125 201/3/125
f 196/3/124 202/3/126 200/3/126
f 203/3/127 201/3/125 199/3/125
f 204/3/128 200/3/126 202/3/126
f 199/3/125 205/3/127 203/3/127
f 200/3/126 204/3/128 206/3/128
f 207/3/129 203/3/127 205/3/127
f 207/3/129 206/3/128 204/3/128
f 203/3/127 207/3/129 208/3/129
f 204/3/128 208/3/129 207/3/129
f 209/3/130 210/3/130 211/3/130
f 211/3/130 210/3/130 212/3/130
f 213/3/131 214/3/131 215/3/131
f 215/3/131 214/3/131 216/3/131
f 217/3/132 218/3/132 219/3/132
f 217/3/132 219/3/132 220/3/132
f 221/3/99 222/3/133 223/3/133
f 221/3/99 223/3/133 224/3/99
f 222/3/133 225/3/99 223/3/133
f 226/3/99 225/3/99 222/3/133
f 226/3/99 227/3/134 225/3/99
f 228/3/134 227/3/134 226/3/99
f 228/3/134 229/3/99 227/3/134
f 228/3/134 230/3/99 229/3/99
f 231/3/135 232/3/136 233/3/137
f 232/3/136 231/3/135 234/3/138
f 235/3/139 234/3/138 231/3/135
f 234/3/138 235/3/139 236/3/140
f 237/3/141 236/3/140 235/3/139
f 236/3/140 237/3/141 238/3/142
f 237/3/141 239/3/143 238/3/142
f 240/3/144 241/3/145 242/3/144
f 241/3/145 240/3/144 243/3/146
f 243/3/146 244/3/147 241/3/145
f 244/3/147 243/3/146 245/3/148
f 245/3/148 246/3/149 244/3/147
f 246/3/149 245/3/148 247/3/150
f 246/3/149 247/3/150 248/3/151
f 249/3/152 250/3/153 251/3/154
f 251/3/154 252/3/152 249/3/152
f 253/3/155 251/3/154 250/3/153
f 251/3/154 253/3/155 254/3/155
f 255/3/156 256/3/157 257/3/157
f 255/3/156 257/3/157 258/3/158
f 259/3/159 255/3/156 258/3/158
f 255/3/156 259/3/159 260/3/159
f 261/3/160 262/3/160 263/3/161
f 263/3/161 262/3/160 264/3/162
f 265/3/163 263/3/161 264/3/162
f 263/3/161 265/3/163 266/3/163
f 267/3/164 268/3/165 269/3/165
f 267/3/164 269/3/165 270/3/166
f 271/3/167 267/3/164 270/3/166
f 267/3/164 271/3/167 272/3/167
f 273/3/168 274/3/168 275/3/168
f 273/3/168 276/3/168 274/3/168
f 277/3/169 278/3/170 279/3/170
f 277/3/169 279/3/170 280/3/171
f 281/3/172 277/3/169 280/3/171
f 277/3/169 281/3/172 282/3/172
f 283/3/173 284/3/174 285/3/174
f 283/3/173 285/3/174 286/3/175
f 287/3/176 283/3/173 286/3/175
f 283/3/173 287/3/176 288/3/176
f 289/3/99 290/3/99 291/3/99
f 289/3/99 291/3/99 292/3/99
f 290/3/99 293/3/99 291/3/99
f 290/3/99 294/3/99 293/3/99
f 294/3/99 295/3/99 293/3/99
f 294/3/99 296/3/99 295/3/99
f 296/3/99 297/3/99 295/3/99
f 296/3/99 298/3/99 297/3/99
f 299/3/177 300/3/178 301/3/179
f 300/3/178 299/3/177 302/3/178
f 301/3/179 303/3/180 299/3/177
f 303/3/180 301/3/179 304/3/181
f 304/3/181 305/3/182 303/3/180
f 305/3/182 306/3/183 303/3/180
f 305/3/182 307/3/178 306/3/183
f 308/3/178 306/3/183 307/3/178
f 309/3/184 310/3/185 311/3/186
f 310/3/185 309/3/184 312/3/185
f 311/3/186 313/3/187 309/3/184
f 313/3/187 311/3/186 314/3/188
f 313/3/187 314/3/188 315/3/189
f 313/3/187 315/3/189 316/3/190
f 317/3/185 316/3/190 315/3/189
f 318/3/185 316/3/190 317/3/185
f 319/3/191 320/3/192 321/3/193
f 321/3/193 322/3/191 319/3/191
f 323/3/194 321/3/193 320/3/192
f 321/3/193 323/3/194 324/3/194
f 325/3/195 326/3/196 327/3/197
f 327/3/197 328/3/195 325/3/195
f 329/3/198 327/3/197 326/3/196
f 327/3/197 329/3/198 330/3/198
f 331/3/199 332/3/200 333/3/201
f 333/3/201 334/3/202 331/3/199
f 333/3/201 332/3/200 335/3/203
f 332/3/200 336/3/204 335/3/203
f 336/3/204 332/3/200 337/3/205
f 334/3/202 333/3/201 338/3/206
f 338/3/206 339/3/207 334/3/202
f 340/3/208 334/3/202 339/3/207
f 341/3/209 342/3/210 343/3/211
f 341/3/209 344/3/212 342/3/210
f 341/3/209 343/3/211 345/3/213
f 346/3/214 345/3/213 343/3/211
f 343/3/211 347/3/214 346/3/214
f 344/3/212 341/3/209 348/3/215
f 349/3/216 344/3/212 348/3/215
f 350/3/217 344/3/212 349/3/216
f 351/3/218 352/3/219 353/3/220
f 352/3/219 354/3/221 353/3/220
f 355/3/144 356/3/146 357/3/222
f 355/3/144 357/3/222 358/3/144
f 356/3/146 359/3/147 357/3/222
f 359/3/147 356/3/146 360/3/148
f 360/3/148 361/3/223 359/3/147
f 360/3/148 362/3/150 361/3/223
f 362/3/150 363/3/224 361/3/223
f 364/3/225 365/3/136 366/3/136
f 365/3/136 364/3/225 367/3/138
f 368/3/139 367/3/138 364/3/225
f 367/3/138 368/3/139 369/3/226
f 368/3/139 370/3/227 369/3/226
f 371/3/142 369/3/226 370/3/227
f 371/3/142 370/3/227 372/3/228
f 373/3/229 374/3/229 375/3/229
f 375/3/229 374/3/229 376/3/229
f 377/3/230 378/3/231 379/3/232
f 377/3/230 379/3/232 380/3/233
f 377/3/230 380/3/233 381/3/234
f 377/3/230 381/3/234 382/3/235
f 383/3/236 384/3/237 385/3/238
f 384/3/237 386/3/239 385/3/238
f 387/3/240 388/3/241 389/3/242
f 389/3/242 390/3/240 387/3/240
f 391/3/243 389/3/242 388/3/241
f 389/3/242 391/3/243 392/3/243
f 393/3/244 394/3/245 395/3/245
f 393/3/244 395/3/245 396/3/246
f 397/3/247 393/3/244 396/3/246
f 393/3/244 397/3/247 398/3/247
f 399/3/248 400/3/249 401/3/250
f 402/3/251 401/3/250 400/3/249
f 400/3/249 403/3/252 402/3/251
f 404/3/253 402/3/251 403/3/252
f 403/3/252 405/3/254 404/3/253
f 405/3/254 403/3/252 406/3/255
f 406/3/255 407/3/256 405/3/254
f 407/3/256 406/3/255 408/3/257
f 407/3/256 408/3/257 409/3/258
f 410/3/259 411/3/260 412/3/261
f 410/3/259 412/3/261 413/3/262
f 414/3/263 410/3/259 413/3/262
f 413/3/262 415/3/264 414/3/263
f 416/3/265 414/3/263 415/3/264
f 414/3/263 416/3/265 417/3/266
f 418/3/267 417/3/266 416/3/265
f 417/3/266 418/3/267 419/3/268
f 418/3/267 420/3/269 419/3/268
f 421/3/270 422/3/271 423/3/272
f 423/3/272 422/3/271 424/3/273
f 422/3/271 421/3/270 425/3/274
f 426/3/275 423/3/272 424/3/273
f 427/3/276 425/3/274 421/3/270
f 428/3/277 426/3/275 424/3/273
f 425/3/274 427/3/276 429/3/278
f 428/3/277 430/3/279 426/3/275
f 431/3/280 429/3/278 427/3/276
f 432/3/281 430/3/279 428/3/277
f 429/3/278 431/3/280 433/3/282
f 430/3/279 432/3/281 434/3/283
f 431/3/280 435/3/284 433/3/282
f 432/3/281 436/3/285 434/3/283
f 435/3/284 431/3/280 437/3/286
f 436/3/285 432/3/281 438/3/287
f 437/3/286 439/3/288 435/3/284
f 438/3/287 440/3/289 436/3/285
f 440/3/289 438/3/287 441/3/290
f 440/3/289 441/3/290 442/3/291
f 439/3/288 437/3/286 443/3/292
f 443/3/292 444/3/293 439/3/288
f 444/3/293 443/3/292 445/3/294
f 445/3/294 446/3/295 444/3/293
f 446/3/295 445/3/294 447/3/296
f 447/3/296 448/3/297 446/3/295
f 448/3/297 447/3/296 449/3/298
f 448/3/297 449/3/298 450/3/299
f 451/3/300 452/3/301 453/3/302
f 452/3/301 451/3/300 454/3/303
f 453/3/302 455/3/304 451/3/300
f 456/3/305 452/3/301 454/3/303
f 455/3/304 453/3/302 457/3/306
f 454/3/303 458/3/307 456/3/305
f 457/3/306 459/3/308 455/3/304
f 456/3/305 458/3/307 460/3/309
f 459/3/308 457/3/306 461/3/310
f 458/3/307 462/3/311 460/3/309
f 463/3/312 459/3/308 461/3/310
f 462/3/311 464/3/313 460/3/309
f 459/3/308 463/3/312 465/3/314
f 462/3/311 466/3/315 464/3/313
f 467/3/316 465/3/314 463/3/312
f 468/3/317 464/3/313 466/3/315
f 465/3/314 467/3/316 469/3/318
f 464/3/313 468/3/317 470/3/319
f 471/3/320 469/3/318 467/3/316
f 472/3/321 470/3/319 468/3/317
f 470/3/319 472/3/321 473/3/322
f 472/3/321 474/3/323 473/3/322
f 469/3/318 471/3/320 475/3/324
f 476/3/325 475/3/324 471/3/320
f 475/3/324 476/3/325 477/3/326
f 478/3/327 477/3/326 476/3/325
f 477/3/326 478/3/327 479/3/328
f 478/3/327 480/3/329 479/3/328
f 481/3/330 482/3/331 483/3/332
f 483/3/332 482/3/331 484/3/333
f 482/3/331 481/3/330 485/3/334
f 486/3/335 483/3/332 484/3/333
f 487/3/336 485/3/334 481/3/330
f 488/3/337 486/3/335 484/3/333
f 485/3/334 487/3/336 489/3/338
f 490/3/339 486/3/335 488/3/337
f 491/3/340 489/3/338 487/3/336
f 488/3/337 492/3/341 490/3/339
f 489/3/338 491/3/340 493/3/342
f 492/3/341 488/3/337 494/3/343
f 491/3/340 495/3/344 493/3/342
f 494/3/343 496/3/345 492/3/341
f 493/3/342 495/3/344 497/3/346
f 496/3/345 494/3/343 498/3/347
f 495/3/344 499/3/348 497/3/346
f 498/3/347 500/3/349 496/3/345
f 500/3/349 498/3/347 501/3/350
f 500/3/349 501/3/350 502/3/351
f 499/3/348 495/3/344 503/3/352
f 503/3/352 504/3/353 499/3/348
f 499/3/348 504/3/353 505/3/354
f 504/3/353 506/3/355 505/3/354
f 506/3/355 504/3/353 507/3/356
f 507/3/356 508/3/357 506/3/355
f 508/3/357 507/3/356 509/3/358
f 508/3/357 509/3/358 510/3/359
f 511/3/360 512/3/361 513/3/362
f 512/3/361 511/3/360 514/3/363
f 513/3/362 515/3/364 511/3/360
f 516/3/365 512/3/361 514/3/363
f 515/3/364 513/3/362 517/3/366
f 514/3/363 518/3/367 516/3/365
f 517/3/366 519/3/368 515/3/364
f 520/3/369 516/3/365 518/3/367
f 519/3/368 517/3/366 521/3/370
f 518/3/367 522/3/371 520/3/369
f 521/3/370 523/3/372 519/3/368
f 524/3/373 520/3/369 522/3/371
f 523/3/372 521/3/370 525/3/374
f 520/3/369 524/3/373 526/3/375
f 527/3/376 523/3/372 525/3/374
f 528/3/377 526/3/375 524/3/373
f 523/3/372 527/3/376 529/3/378
f 526/3/375 528/3/377 530/3/379
f 531/3/380 529/3/378 527/3/376
f 532/3/381 530/3/379 528/3/377
f 530/3/379 532/3/381 533/3/382
f 532/3/381 534/3/383 533/3/382
f 531/3/380 527/3/376 535/3/384
f 536/3/385 531/3/380 535/3/384
f 531/3/380 536/3/385 537/3/386
f 538/3/387 537/3/386 536/3/385
f 537/3/386 538/3/387 539/3/388
f 538/3/387 540/3/389 539/3/388
f 541/3/390 542/3/390 543/3/390
f 542/3/390 541/3/390 544/3/390
f 545/3/391 546/3/392 547/3/391
f 548/3/393 547/3/391 546/3/392
f 548/3/393 546/3/392 549/3/394
f 550/3/395 548/3/393 549/3/394
f 549/3/394 551/3/396 550/3/395
f 551/3/396 549/3/394 552/3/397
f 552/3/397 553/3/398 551/3/396
f 553/3/398 552/3/397 554/3/399
f 553/3/398 554/3/399 555/3/400
f 556/3/401 557/3/402 558/3/403
f 556/3/401 558/3/403 559/3/404
f 560/3/405 556/3/401 559/3/404
f 559/3/404 561/3/406 560/3/405
f 562/3/407 560/3/405 561/3/406
f 560/3/405 562/3/407 563/3/408
f 564/3/409 563/3/408 562/3/407
f 563/3/408 564/3/409 565/3/410
f 564/3/409 566/3/411 565/3/410
f 567/3/412 568/3/412 569/3/412
f 570/3/412 568/3/412 567/3/412
f 571/3/413 572/3/413 573/3/414
f 573/3/414 572/3/413 574/3/415
f 575/3/416 573/3/414 574/3/415
f 573/3/414 575/3/416 576/3/417
f 577/3/418 578/3/419 579/3/420
f 577/3/418 579/3/420 580/3/421
f 581/3/422 577/3/418 580/3/421
f 577/3/418 581/3/422 582/3/422
f 583/3/423 584/3/424 585/3/425
f 585/3/425 586/3/423 583/3/423
f 587/3/426 585/3/425 584/3/424
f 584/3/424 588/3/427 587/3/426
f 589/3/428 587/3/426 588/3/427
f 587/3/426 589/3/428 590/3/429
f 591/3/423 590/3/429 589/3/428
f 590/3/429 591/3/423 592/3/423
f 593/3/430 594/3/431 595/3/431
f 593/3/430 595/3/431 596/3/432
f 597/3/433 593/3/430 596/3/432
f 598/3/434 597/3/433 596/3/432
f 599/3/435 597/3/433 598/3/434
f 597/3/433 599/3/435 600/3/436
f 601/3/431 600/3/436 599/3/435
f 600/3/436 601/3/431 602/3/431
f 603/3/437 604/3/438 605/3/439
f 606/3/438 605/3/439 604/3/438
f 605/3/439 607/3/440 603/3/437
f 608/3/441 603/3/437 607/3/440
f 607/3/440 609/3/442 608/3/441
f 609/3/442 607/3/440 610/3/443
f 610/3/443 611/3/444 609/3/442
f 611/3/444 610/3/443 612/3/444
f 613/3/445 614/3/446 615/3/447
f 614/3/446 613/3/445 616/3/445
f 614/3/446 617/3/448 615/3/447
f 617/3/448 618/3/449 615/3/447
f 617/3/448 619/3/450 618/3/449
f 619/3/450 617/3/448 620/3/451
f 620/3/451 621/3/452 619/3/450
f 621/3/452 620/3/451 622/3/452
f 623/3/453 624/3/453 625/3/453
f 624/3/453 623/3/453 626/3/453
f 627/3/454 628/3/455 629/3/455
f 627/3/454 629/3/455 630/3/456
f 631/3/457 627/3/454 630/3/456
f 627/3/454 631/3/457 632/3/457
f 633/3/458 634/3/459 635/3/460
f 635/3/460 636/3/458 633/3/458
f 637/3/461 635/3/460 634/3/459
f 635/3/460 637/3/461 638/3/461
f 639/3/462 638/3/461 637/3/461
f 639/3/462 637/3/461 640/3/463
f 641/3/464 639/3/462 640/3/463
f 639/3/462 641/3/464 642/3/464
f 643/3/465 644/3/466 645/3/466
f 643/3/465 645/3/466 646/3/467
f 647/3/468 643/3/465 646/3/467
f 647/3/468 646/3/467 648/3/468
f 649/3/469 650/3/470 651/3/471
f 651/3/471 652/3/469 649/3/469
f 653/3/472 651/3/471 650/3/470
f 651/3/471 653/3/472 654/3/472
f 655/3/259 656/3/261 657/3/262
f 656/3/261 655/3/259 658/3/473
f 657/3/262 659/3/263 655/3/259
f 659/3/263 657/3/262 660/3/264
f 660/3/264 661/3/265 659/3/263
f 659/3/263 661/3/265 662/3/266
f 663/3/267 662/3/266 661/3/265
f 662/3/266 663/3/267 664/3/474
f 664/3/474 663/3/267 665/3/269
f 666/3/475 667/3/249 668/3/251
f 667/3/249 666/3/475 669/3/248
f 670/3/252 668/3/251 667/3/249
f 668/3/251 670/3/252 671/3/253
f 670/3/252 672/3/476 671/3/253
f 672/3/476 670/3/252 673/3/477
f 673/3/477 674/3/478 672/3/476
f 674/3/478 673/3/477 675/3/479
f 675/3/479 676/3/258 674/3/478
f 677/3/480 678/3/302 679/3/481
f 678/3/302 680/3/482 679/3/481
f 677/3/480 679/3/481 681/3/303
f 680/3/482 678/3/302 682/3/483
f 681/3/303 683/3/484 677/3/480
f 682/3/483 684/3/485 680/3/482
f 683/3/484 681/3/303 685/3/486
f 684/3/485 682/3/483 686/3/487
f 685/3/486 687/3/488 683/3/484
f 684/3/485 686/3/487 688/3/489
f 687/3/488 685/3/486 689/3/311
f 690/3/490 684/3/485 688/3/489
f 689/3/311 691/3/491 687/3/488
f 688/3/489 692/3/492 690/3/490
f 691/3/491 689/3/311 693/3/493
f 694/3/494 690/3/490 692/3/492
f 695/3/495 691/3/491 693/3/493
f 694/3/494 692/3/492 696/3/320
f 691/3/491 695/3/495 697/3/496
f 698/3/324 694/3/494 696/3/320
f 699/3/321 697/3/496 695/3/495
f 697/3/496 699/3/321 700/3/497
f 700/3/497 699/3/321 701/3/323
f 702/3/498 698/3/324 696/3/320
f 703/3/499 698/3/324 702/3/498
f 704/3/500 703/3/499 702/3/498
f 703/3/499 704/3/500 705/3/328
f 705/3/328 704/3/500 706/3/501
f 707/3/502 708/3/270 709/3/503
f 708/3/270 710/3/504 709/3/503
f 711/3/273 707/3/502 709/3/503
f 712/3/505 710/3/504 708/3/270
f 707/3/502 711/3/273 713/3/506
f 710/3/504 712/3/505 714/3/278
f 715/3/507 713/3/506 711/3/273
f 716/3/280 714/3/278 712/3/505
f 713/3/506 715/3/507 717/3/508
f 714/3/278 716/3/280 718/3/282
f 719/3/281 717/3/508 715/3/507
f 720/3/284 718/3/282 716/3/280
f 717/3/508 719/3/281 721/3/283
f 716/3/280 722/3/509 720/3/284
f 719/3/281 723/3/510 721/3/283
f 724/3/511 720/3/284 722/3/509
f 723/3/510 719/3/281 725/3/512
f 724/3/511 722/3/509 726/3/513
f 725/3/512 727/3/289 723/3/510
f 727/3/289 725/3/512 728/3/514
f 728/3/514 729/3/291 727/3/289
f 730/3/293 724/3/511 726/3/513
f 726/3/513 731/3/515 730/3/293
f 730/3/293 731/3/515 732/3/295
f 731/3/515 733/3/516 732/3/295
f 733/3/516 734/3/517 732/3/295
f 733/3/516 735/3/518 734/3/517
f 735/3/518 736/3/299 734/3/517
f 737/3/361 738/3/362 739/3/519
f 738/3/362 740/3/520 739/3/519
f 737/3/361 739/3/519 741/3/363
f 740/3/520 738/3/362 742/3/521
f 741/3/363 743/3/522 737/3/361
f 742/3/521 744/3/368 740/3/520
f 743/3/522 741/3/363 745/3/523
f 744/3/368 742/3/521 746/3/524
f 745/3/523 747/3/525 743/3/522
f 746/3/524 748/3/526 744/3/368
f 747/3/525 745/3/523 749/3/371
f 748/3/526 746/3/524 750/3/374
f 751/3/527 747/3/525 749/3/371
f 748/3/526 750/3/374 752/3/376
f 747/3/525 751/3/527 753/3/375
f 754/3/378 748/3/526 752/3/376
f 755/3/377 753/3/375 751/3/527
f 752/3/376 756/3/528 754/3/378
f 753/3/375 755/3/377 757/3/379
f 756/3/528 752/3/376 758/3/529
f 759/3/381 757/3/379 755/3/377
f 757/3/379 759/3/381 760/3/382
f 760/3/382 759/3/381 761/3/383
f 762/3/530 756/3/528 758/3/529
f 763/3/386 756/3/528 762/3/530
f 764/3/531 763/3/386 762/3/530
f 763/3/386 764/3/531 765/3/532
f 765/3/532 764/3/531 766/3/533
f 767/3/534 768/3/535 769/3/536
f 768/3/535 770/3/334 769/3/536
f 771/3/537 767/3/534 769/3/536
f 772/3/538 770/3/334 768/3/535
f 767/3/534 771/3/537 773/3/539
f 770/3/334 772/3/538 774/3/540
f 775/3/541 773/3/539 771/3/537
f 776/3/542 774/3/540 772/3/538
f 773/3/539 775/3/541 777/3/543
f 774/3/540 776/3/542 778/3/544
f 775/3/541 779/3/341 777/3/543
f 780/3/545 778/3/544 776/3/542
f 779/3/341 775/3/541 781/3/343
f 778/3/544 780/3/545 782/3/346
f 781/3/343 783/3/345 779/3/341
f 784/3/546 782/3/346 780/3/545
f 783/3/345 781/3/343 785/3/547
f 784/3/546 780/3/545 786/3/352
f 785/3/547 787/3/548 783/3/345
f 787/3/548 785/3/547 788/3/350
f 788/3/350 789/3/351 787/3/548
f 790/3/549 784/3/546 786/3/352
f 784/3/546 790/3/549 791/3/354
f 792/3/550 791/3/354 790/3/549
f 790/3/549 793/3/356 792/3/550
f 793/3/356 794/3/551 792/3/550
f 794/3/551 793/3/356 795/3/552
f 795/3/552 796/3/553 794/3/551
f 797/3/554 798/3/555 799/3/556
f 797/3/554 799/3/556 800/3/554
f 798/3/555 801/3/557 799/3/556
f 798/3/555 802/3/557 801/3/557
f 803/3/401 804/3/558 805/3/559
f 804/3/558 803/3/401 806/3/560
f 805/3/559 807/3/561 803/3/401
f 807/3/561 805/3/559 808/3/406
f 808/3/406 809/3/407 807/3/561
f 807/3/561 809/3/407 810/3/408
f 811/3/409 810/3/408 809/3/407
f 810/3/408 811/3/409 812/3/562
f 812/3/562 811/3/409 813/3/411
f 814/3/563 815/3/392 816/3/393
f 815/3/392 814/3/563 817/3/564
f 818/3/565 816/3/393 815/3/392
f 816/3/393 818/3/565 819/3/395
f 818/3/565 820/3/566 819/3/395
f 820/3/566 818/3/565 821/3/567
f 821/3/567 822/3/398 820/3/566
f 822/3/398 821/3/567 823/3/568
f 823/3/568 824/3/400 822/3/398
f 825/3/569 826/3/570 827/3/571
f 825/3/569 827/3/571 828/3/572
f 829/3/573 830/3/574 831/3/575
f 830/3/574 832/3/576 831/3/575
f 833/3/577 834/3/578 835/3/579
f 834/3/578 833/3/577 836/3/580
f 837/3/581 836/3/580 833/3/577
f 836/3/580 837/3/581 838/3/582
f 839/3/583 838/3/582 837/3/581
f 838/3/582 839/3/583 840/3/584
f 839/3/583 841/3/585 840/3/584
f 842/3/586 843/3/587 844/3/588
f 843/3/587 842/3/586 845/3/589
f 845/3/589 846/3/590 843/3/587
f 846/3/590 845/3/589 847/3/591
f 847/3/591 848/3/592 846/3/590
f 848/3/592 847/3/591 849/3/593
f 848/3/592 849/3/593 850/3/594
f 851/3/595 852/3/596 853/3/597
f 851/3/595 853/3/597 854/3/598
f 855/3/599 856/3/600 857/3/601
f 856/3/600 858/3/602 857/3/601
f 859/3/603 860/3/604 861/3/604
f 859/3/603 861/3/604 862/3/603
f 860/3/604 863/3/603 861/3/604
f 864/3/603 863/3/603 860/3/604
f 864/3/603 865/3/605 863/3/603
f 866/3/606 865/3/605 864/3/603
f 866/3/606 867/3/603 865/3/605
f 866/3/606 868/3/603 867/3/603
f 869/3/586 870/3/607 871/3/587
f 869/3/586 871/3/587 872/3/588
f 870/3/607 873/3/590 871/3/587
f 873/3/590 870/3/607 874/3/591
f 874/3/591 875/3/608 873/3/590
f 874/3/591 876/3/593 875/3/608
f 876/3/593 877/3/609 875/3/608
f 878/3/577 879/3/579 880/3/578
f 879/3/579 878/3/577 881/3/610
f 882/3/581 881/3/610 878/3/577
f 881/3/610 882/3/581 883/3/582
f 883/3/582 882/3/581 884/3/611
f 885/3/584 883/3/582 884/3/611
f 885/3/584 884/3/611 886/3/585
f 887/3/612 888/3/613 889/3/614
f 890/3/615 889/3/614 888/3/613
f 887/3/612 889/3/614 891/3/612
f 889/3/614 890/3/615 892/3/615
f 893/3/616 887/3/612 891/3/612
f 894/3/617 892/3/615 890/3/615
f 887/3/612 893/3/616 895/3/616
f 890/3/615 896/3/618 894/3/617
f 897/3/619 895/3/616 893/3/616
f 898/3/620 894/3/617 896/3/618
f 897/3/619 893/3/616 899/3/619
f 894/3/617 898/3/620 900/3/620
f 901/3/621 897/3/619 899/3/619
f 901/3/621 900/3/620 898/3/620
f 897/3/619 901/3/621 902/3/621
f 901/3/621 898/3/620 902/3/621
f 903/3/622 904/3/623 905/3/623
f 906/3/624 905/3/623 904/3/623
f 904/3/623 903/3/622 907/3/622
f 906/3/624 904/3/623 908/3/624
f 909/3/625 907/3/622 903/3/622
f 910/3/626 906/3/624 908/3/624
f 903/3/622 911/3/627 909/3/625
f 906/3/624 910/3/626 912/3/628
f 913/3/629 909/3/625 911/3/627
f 914/3/630 912/3/628 910/3/626
f 909/3/625 913/3/629 915/3/629
f 914/3/630 910/3/626 916/3/630
f 915/3/629 913/3/629 917/3/631
f 917/3/631 914/3/630 916/3/630
f 917/3/631 913/3/629 918/3/632
f 914/3/630 917/3/631 918/3/632
o Glorious_Star_Middle
usemtl GLORIOUS_UNWRAPPED
v 0.039515 0.647790 0.208804
v 0.000932 0.714484 0.208804
v 0.000932 0.603325 0.240217
v 0.097386 0.603325 0.208804
v 0.039515 0.558860 0.208804
v 0.097386 0.603325 0.208804
v 0.000932 0.603325 0.240217
v 0.000932 0.492168 0.208804
v -0.095523 0.603325 0.208804
v -0.037651 0.558860 0.208804
v 0.000932 0.603325 0.240217
v 0.000932 0.492168 0.208804
v -0.037651 0.647790 0.208804
v -0.095523 0.603325 0.208804
v 0.000932 0.603325 0.240217
v 0.000932 0.714484 0.208804
v -0.037651 0.558860 -0.215303
v -0.095523 0.603325 -0.215303
v 0.000932 0.603325 -0.246716
v 0.000932 0.492168 -0.215303
v 0.039515 0.558860 -0.215303
v 0.000932 0.492168 -0.215303
v 0.000932 0.603325 -0.246716
v 0.097386 0.603325 -0.215303
v -0.037651 0.647790 -0.215303
v 0.000932 0.714484 -0.215303
v 0.000932 0.603325 -0.246716
v -0.095523 0.603325 -0.215303
v 0.000932 0.714484 -0.215303
v 0.039515 0.647790 -0.215303
v 0.000932 0.603325 -0.246716
v 0.097386 0.603325 -0.215303
vn 0.3584 0.3109 0.8803
vn 0.4254 0.2461 0.8709
vn 0.3583 0.3109 0.8803
vn 0.2872 0.3738 0.8819
vn 0.3584 -0.3109 0.8803
vn 0.2872 -0.3738 0.8819
vn 0.3583 -0.3109 0.8803
vn 0.4254 -0.2461 0.8709
vn -0.2872 -0.3738 0.8819
vn -0.3584 -0.3109 0.8803
vn -0.3583 -0.3109 0.8803
vn -0.4254 -0.2461 0.8709
vn -0.3584 0.3109 0.8803
vn -0.2872 0.3738 0.8819
vn -0.3583 0.3109 0.8803
vn -0.4254 0.2461 0.8709
vn -0.3584 -0.3109 -0.8803
vn -0.2872 -0.3738 -0.8819
vn -0.3583 -0.3109 -0.8803
vn -0.4254 -0.2461 -0.8709
vn 0.3584 -0.3109 -0.8803
vn 0.4254 -0.2461 -0.8709
vn 0.3583 -0.3109 -0.8803
vn 0.2872 -0.3738 -0.8819
vn -0.3584 0.3109 -0.8803
vn -0.4254 0.2461 -0.8709
vn -0.3583 0.3109 -0.8803
vn -0.2872 0.3738 -0.8819
vn 0.4254 0.2461 -0.8709
vn 0.3584 0.3109 -0.8803
vn 0.3583 0.3109 -0.8803
vn 0.2872 0.3738 -0.8819
vt 0.000000 0.000000
s 1
f 919/4/633 920/4/634 921/4/635
f 922/4/636 919/4/633 921/4/635
f 923/4/637 924/4/638 925/4/639
f 926/4/640 923/4/637 925/4/639
f 927/4/641 928/4/642 929/4/643
f 928/4/642 930/4/644 929/4/643
f 931/4/645 932/4/646 933/4/647
f 934/4/648 931/4/645 933/4/647
f 935/4/649 936/4/650 937/4/651
f 938/4/652 935/4/649 937/4/651
f 939/4/653 940/4/654 941/4/655
f 942/4/656 939/4/653 941/4/655
f 943/4/657 944/4/658 945/4/659
f 946/4/660 943/4/657 945/4/659
f 947/4/661 948/4/662 949/4/663
f 948/4/662 950/4/664 949/4/663
o Glorious_Wrap_Blade
usemtl WRAP_BLADE
v 0.209882 0.777557 0.081136
v 0.250188 0.701337 -0.096717
v 0.209882 0.777557 -0.081136
v 0.250188 0.701337 0.096715
v 0.192711 0.847799 0.074498
v 0.192711 0.847799 -0.074498
v 0.202979 0.918041 0.078466
v 0.202979 0.918041 -0.078468
v 0.229096 0.980302 -0.088481
v 0.229096 0.980302 0.088481
v 0.229096 1.964195 -0.088481
v 0.229096 1.964195 0.088481
v 0.229096 2.090310 -0.088481
v 0.229096 2.090310 0.088481
v 0.229096 2.163746 -0.088481
v 0.229096 2.163746 0.088481
v 0.229096 2.269106 -0.088482
v 0.229096 2.269106 0.088481
v 0.229096 2.474207 -0.088482
v 0.229096 2.474207 0.088481
v 0.245875 2.830966 -0.000000
v 0.000000 0.777557 0.081136
v -0.209882 0.777557 -0.000000
v 0.000000 0.701337 0.096715
v -0.250188 0.701337 -0.000000
v -0.192711 0.847799 -0.000000
v 0.000000 0.847799 0.074498
v 0.000000 0.918041 0.078466
v -0.202979 0.918041 -0.000000
v 0.000000 0.980302 0.088481
v -0.228884 0.980302 -0.000000
v -0.008389 1.964195 0.088481
v -0.245663 1.964195 -0.000000
v -0.246506 2.090310 -0.000000
v 0.001397 2.090310 0.088481
v -0.221338 2.235583 -0.000000
v 0.023770 2.163746 0.088481
v 0.059426 2.269106 0.088481
v -0.189178 2.366489 -0.000000
v 0.089708 2.323244 0.088481
v -0.122388 2.495554 -0.000000
v -0.002462 2.626212 -0.000000
v 0.119993 2.736573 -0.000000
v 0.229096 2.474207 0.088481
v 0.245875 2.830966 -0.000000
v 0.000000 0.918041 -0.078468
v -0.192711 0.847799 -0.000000
v -0.202979 0.918041 -0.000000
v 0.000000 0.847799 -0.074498
v 0.000000 0.980302 -0.088481
v 0.000000 0.777557 -0.081136
v -0.228884 0.980302 -0.000000
v -0.209882 0.777557 -0.000000
v 0.000000 0.701337 -0.096717
v -0.250188 0.701337 -0.000000
v -0.008389 1.964195 -0.088481
v -0.245663 1.964195 -0.000000
v -0.246506 2.090310 -0.000000
v 0.001397 2.090310 -0.088481
v -0.221338 2.235583 -0.000000
v 0.023770 2.163746 -0.088481
v 0.059426 2.269106 -0.088482
v -0.189178 2.366489 -0.000000
v 0.089708 2.323244 -0.088482
v -0.122388 2.495554 -0.000000
v -0.002462 2.626212 -0.000000
v 0.119993 2.736573 -0.000000
v 0.229096 2.474207 -0.088482
v 0.245875 2.830966 -0.000000
v 0.000000 0.777557 0.081136
v 0.209882 0.777557 0.081136
v 0.192711 0.847799 0.074498
v 0.000000 0.701337 0.096715
v 0.250188 0.701337 0.096715
v 0.000000 0.847799 0.074498
v 0.000000 0.918041 0.078466
v 0.202979 0.918041 0.078466
v 0.000000 0.980302 0.088481
v 0.229096 0.980302 0.088481
v 0.229096 1.964195 0.088481
v -0.008389 1.964195 0.088481
v 0.001397 2.090310 0.088481
v 0.229096 2.090310 0.088481
v 0.023770 2.163746 0.088481
v 0.229096 2.163746 0.088481
v 0.059426 2.269106 0.088481
v 0.229096 2.269106 0.088481
v 0.089708 2.323244 0.088481
v 0.229096 2.474207 0.088481
v 0.209882 0.777557 -0.081136
v 0.000000 0.701337 -0.096717
v 0.000000 0.777557 -0.081136
v 0.250188 0.701337 -0.096717
v 0.192711 0.847799 -0.074498
v 0.000000 0.847799 -0.074498
v 0.000000 0.918041 -0.078468
v 0.202979 0.918041 -0.078468
v 0.000000 0.980302 -0.088481
v 0.229096 0.980302 -0.088481
v 0.229096 1.964195 -0.088481
v -0.008389 1.964195 -0.088481
v 0.001397 2.090310 -0.088481
v 0.229096 2.090310 -0.088481
v 0.023770 2.163746 -0.088481
v 0.229096 2.163746 -0.088481
v 0.059426 2.269106 -0.088482
v 0.229096 2.269106 -0.088482
v 0.089708 2.323244 -0.088482
v 0.229096 2.474207 -0.088482
vn 0.9294 0.3690 -0.0000
vn 0.8840 0.4675 -0.0000
vn 0.9295 0.3689 -0.0000
vn 0.9987 0.0505 -0.0000
vn 0.9987 0.0504 -0.0000
vn 0.9604 -0.2786 -0.0000
vn 0.9810 -0.1941 -0.0000
vn 1.0000 -0.0000 -0.0000
vn 0.9998 -0.0215 -0.0000
vn 0.9989 -0.0470 -0.0000
vn -0.3570 0.1404 0.9235
vn -0.3570 0.1418 0.9233
vn -0.3542 0.1873 0.9162
vn -0.3606 0.0184 0.9326
vn -0.3605 0.0179 0.9326
vn -0.3587 -0.1026 0.9278
vn -0.3587 -0.1035 0.9277
vn -0.3567 -0.0746 0.9312
vn -0.3566 -0.0732 0.9314
vn -0.3487 0.0039 0.9372
vn -0.3354 0.0414 0.9412
vn -0.3350 0.0431 0.9412
vn -0.3158 0.0823 0.9453
vn -0.3206 0.0779 0.9440
vn -0.2980 0.1100 0.9482
vn -0.2886 0.1279 0.9489
vn -0.2593 0.1695 0.9508
vn -0.2297 0.1969 0.9531
vn -0.2126 0.2137 0.9535
vn -0.2136 0.2286 0.9498
vn -0.2138 0.2311 0.9491
vn -0.3587 -0.1027 -0.9278
vn -0.3606 0.0184 -0.9326
vn -0.3587 -0.1035 -0.9277
vn -0.3605 0.0179 -0.9326
vn -0.3567 -0.0746 -0.9312
vn -0.3570 0.1404 -0.9235
vn -0.3566 -0.0732 -0.9314
vn -0.3570 0.1418 -0.9233
vn -0.3542 0.1873 -0.9162
vn -0.3487 0.0039 -0.9372
vn -0.3354 0.0414 -0.9412
vn -0.3350 0.0431 -0.9412
vn -0.3158 0.0823 -0.9453
vn -0.3206 0.0779 -0.9440
vn -0.2979 0.1100 -0.9482
vn -0.2886 0.1279 -0.9489
vn -0.2593 0.1695 -0.9508
vn -0.2300 0.1972 -0.9530
vn -0.2126 0.2137 -0.9535
vn -0.2136 0.2286 -0.9498
vn -0.2138 0.2311 -0.9491
vn -0.2138 0.2312 -0.9491
vn -0.0000 0.1474 0.9891
vn -0.0000 0.1528 0.9883
vn -0.0000 0.0201 0.9998
vn -0.0000 0.2003 0.9797
vn -0.0000 0.0189 0.9998
vn -0.0000 -0.1077 0.9942
vn -0.0000 -0.1116 0.9938
vn -0.0000 -0.0794 0.9968
vn -0.0000 -0.0748 0.9972
vn -0.0000 -0.0000 1.0000
vn -0.0000 0.1528 -0.9883
vn -0.0000 0.2003 -0.9797
vn -0.0000 0.1474 -0.9891
vn -0.0000 0.0203 -0.9998
vn -0.0000 0.0189 -0.9998
vn -0.0000 -0.1077 -0.9942
vn -0.0000 -0.1116 -0.9938
vn -0.0000 -0.0794 -0.9968
vn -0.0000 -0.0749 -0.9972
vn -0.0000 -0.0000 -1.0000
vt 0.000000 0.000000
s 1
f 951/5/665 952/5/666 953/5/667
f 952/5/666 951/5/665 954/5/666
f 953/5/667 955/5/668 951/5/665
f 955/5/668 953/5/667 956/5/669
f 956/5/669 957/5/670 955/5/668
f 957/5/670 956/5/669 958/5/670
f 959/5/671 957/5/670 958/5/670
f 957/5/670 959/5/671 960/5/671
f 961/5/672 960/5/671 959/5/671
f 960/5/671 961/5/672 962/5/672
f 963/5/672 962/5/672 961/5/672
f 962/5/672 963/5/672 964/5/672
f 965/5/672 964/5/672 963/5/672
f 964/5/672 965/5/672 966/5/672
f 967/5/672 966/5/672 965/5/672
f 966/5/672 967/5/672 968/5/672
f 969/5/673 968/5/672 967/5/672
f 968/5/672 969/5/673 970/5/673
f 970/5/673 969/5/673 971/5/674
f 972/5/675 973/5/676 974/5/677
f 975/5/677 974/5/677 973/5/676
f 972/5/675 976/5/678 973/5/676
f 976/5/678 972/5/675 977/5/679
f 976/5/678 977/5/679 978/5/680
f 976/5/678 978/5/680 979/5/681
f 979/5/681 978/5/680 980/5/682
f 979/5/681 980/5/682 981/5/683
f 980/5/682 982/5/684 981/5/683
f 981/5/683 982/5/684 983/5/684
f 982/5/684 984/5/685 983/5/684
f 984/5/685 982/5/684 985/5/686
f 985/5/686 986/5/687 984/5/685
f 986/5/687 985/5/686 987/5/688
f 986/5/687 987/5/688 988/5/689
f 986/5/687 988/5/689 989/5/690
f 989/5/690 988/5/689 990/5/691
f 990/5/691 991/5/692 989/5/690
f 990/5/691 992/5/693 991/5/692
f 992/5/693 990/5/691 993/5/694
f 994/5/695 993/5/694 990/5/691
f 993/5/694 994/5/695 995/5/695
f 996/5/696 997/5/697 998/5/698
f 997/5/697 996/5/696 999/5/699
f 998/5/698 1000/5/700 996/5/696
f 997/5/697 999/5/699 1001/5/701
f 1000/5/700 998/5/698 1002/5/702
f 1001/5/701 1003/5/703 997/5/697
f 1004/5/704 1003/5/703 1001/5/701
f 1003/5/703 1004/5/704 1005/5/704
f 1002/5/702 1006/5/705 1000/5/700
f 1006/5/705 1002/5/702 1007/5/705
f 1008/5/706 1006/5/705 1007/5/705
f 1008/5/706 1009/5/707 1006/5/705
f 1010/5/708 1009/5/707 1008/5/706
f 1010/5/708 1011/5/709 1009/5/707
f 1010/5/708 1012/5/710 1011/5/709
f 1012/5/710 1010/5/708 1013/5/711
f 1013/5/711 1014/5/712 1012/5/710
f 1014/5/712 1013/5/711 1015/5/713
f 1014/5/712 1015/5/713 1016/5/714
f 1017/5/715 1014/5/712 1016/5/714
f 1018/5/716 1014/5/712 1017/5/715
f 1019/5/717 1018/5/716 1017/5/715
f 1020/5/718 1021/5/719 1022/5/720
f 1023/5/721 1021/5/719 1020/5/718
f 1021/5/719 1023/5/721 1024/5/721
f 1020/5/718 1022/5/720 1025/5/722
f 1022/5/720 1026/5/723 1025/5/722
f 1026/5/723 1022/5/720 1027/5/724
f 1027/5/724 1028/5/725 1026/5/723
f 1028/5/725 1027/5/724 1029/5/726
f 1029/5/726 1030/5/727 1028/5/725
f 1028/5/725 1030/5/727 1031/5/727
f 1030/5/727 1032/5/727 1031/5/727
f 1032/5/727 1030/5/727 1033/5/727
f 1033/5/727 1034/5/727 1032/5/727
f 1034/5/727 1033/5/727 1035/5/727
f 1035/5/727 1036/5/727 1034/5/727
f 1036/5/727 1035/5/727 1037/5/727
f 1037/5/727 1038/5/727 1036/5/727
f 1038/5/727 1037/5/727 1039/5/727
f 1040/5/728 1041/5/729 1042/5/730
f 1041/5/729 1040/5/728 1043/5/729
f 1042/5/730 1044/5/731 1040/5/728
f 1044/5/731 1042/5/730 1045/5/732
f 1046/5/733 1044/5/731 1045/5/732
f 1046/5/733 1047/5/734 1044/5/731
f 1048/5/735 1047/5/734 1046/5/733
f 1048/5/735 1049/5/736 1047/5/734
f 1048/5/735 1050/5/737 1049/5/736
f 1050/5/737 1048/5/735 1051/5/737
f 1052/5/737 1050/5/737 1051/5/737
f 1052/5/737 1053/5/737 1050/5/737
f 1053/5/737 1052/5/737 1054/5/737
f 1054/5/737 1055/5/737 1053/5/737
f 1055/5/737 1054/5/737 1056/5/737
f 1056/5/737 1057/5/737 1055/5/737
f 1057/5/737 1056/5/737 1058/5/737
f 1058/5/737 1059/5/737 1057/5/737
